<svg width="152" height="88" viewBox="0 0 152 88" fill="none" xmlns="http://www.w3.org/2000/svg">
<path d="M93.8907 34.5322C93.9466 34.425 94.0235 34.3301 94.1169 34.2533C94.2102 34.1764 94.3181 34.1192 94.4341 34.085C94.55 34.0508 94.6717 34.0403 94.7918 34.0541C94.9119 34.068 95.028 34.1059 95.1331 34.1656C95.2414 34.2204 95.3373 34.2967 95.4149 34.39C95.4925 34.4832 95.5503 34.5913 95.5846 34.7077C95.619 34.824 95.6292 34.9462 95.6146 35.0666C95.6 35.187 95.5609 35.3032 95.4998 35.408C95.381 35.6187 95.1848 35.7748 94.9529 35.8432C94.7209 35.9117 94.4714 35.8871 94.2573 35.7746C94.0485 35.6541 93.894 35.4579 93.8258 35.2266C93.7576 34.9954 93.7808 34.7468 93.8907 34.5322Z" fill="#222222"/>
<path d="M88.888 32.3067C88.9305 32.1923 88.9952 32.0875 89.0786 31.9983C89.1619 31.9092 89.2621 31.8375 89.3734 31.7875C89.4847 31.7375 89.6048 31.7101 89.7267 31.7069C89.8487 31.7038 89.9701 31.7249 90.0838 31.7691C90.1981 31.8122 90.3024 31.8781 90.3904 31.9628C90.4783 32.0475 90.5482 32.1492 90.5956 32.2618C90.643 32.3743 90.667 32.4953 90.6661 32.6174C90.6653 32.7396 90.6396 32.8602 90.5906 32.9721C90.4964 33.1919 90.3212 33.367 90.1013 33.461C89.8815 33.555 89.6338 33.5607 89.4099 33.4769C89.1878 33.388 89.0091 33.216 88.9117 32.9976C88.8143 32.7791 88.8058 32.5313 88.888 32.3067Z" fill="#222222"/>
<path d="M83.6294 30.7322C83.687 30.4937 83.8365 30.2876 84.0454 30.1588C84.2543 30.03 84.5055 29.989 84.7445 30.0447C84.864 30.0689 84.9772 30.1173 85.0772 30.187C85.1772 30.2567 85.2618 30.3462 85.3257 30.45C85.3897 30.5537 85.4317 30.6695 85.4491 30.7901C85.4665 30.9108 85.4589 31.0337 85.4268 31.1513C85.3647 31.3829 85.2164 31.582 85.0122 31.7079C84.8081 31.8337 84.5636 31.8768 84.3287 31.8283C84.2096 31.8047 84.0964 31.7572 83.9961 31.6886C83.8958 31.6201 83.8104 31.532 83.7451 31.4296C83.6797 31.3272 83.6358 31.2126 83.6159 31.0927C83.5961 30.9729 83.6007 30.8503 83.6294 30.7322Z" fill="#222222"/>
<path d="M78.1998 29.9092C78.2345 29.6676 78.3563 29.447 78.5424 29.289C78.7285 29.131 78.9659 29.0465 79.2099 29.0515C79.3322 29.0644 79.4506 29.1017 79.5582 29.1611C79.6657 29.2206 79.7603 29.301 79.8363 29.3976C79.9123 29.4942 79.9681 29.605 80.0006 29.7236C80.033 29.8421 80.0414 29.966 80.0251 30.0878C79.9941 30.3249 79.871 30.5402 79.6824 30.6872C79.4939 30.8343 79.2551 30.9012 79.0176 30.8735C78.9004 30.8644 78.7861 30.8322 78.6815 30.7787C78.5768 30.7252 78.4837 30.6515 78.4077 30.5618C78.3317 30.4722 78.2742 30.3683 78.2385 30.2563C78.2028 30.1443 78.1897 30.0263 78.1998 29.9092Z" fill="#222222"/>
<path d="M72.7046 29.9142C72.6928 29.7932 72.7061 29.671 72.7438 29.5554C72.7815 29.4398 72.8428 29.3333 72.9237 29.2426C73.0046 29.1518 73.1035 29.0789 73.214 29.0282C73.3245 28.9776 73.4444 28.9504 73.5659 28.9484C73.6888 28.9413 73.8119 28.9589 73.9278 29.0002C74.0438 29.0415 74.1503 29.1056 74.241 29.1888C74.3318 29.272 74.4049 29.3725 74.456 29.4845C74.5072 29.5964 74.5354 29.7175 74.5389 29.8405C74.5467 30.0774 74.4617 30.308 74.3021 30.4832C74.1424 30.6585 73.9207 30.7645 73.6841 30.7787C73.4443 30.776 73.2135 30.6872 73.0337 30.5285C72.8539 30.3698 72.7371 30.1518 72.7046 29.9142Z" fill="#222222"/>
<path d="M67.3106 30.9024C67.2807 30.7849 67.2746 30.6627 67.2927 30.5428C67.3107 30.4229 67.3525 30.3078 67.4157 30.2043C67.4788 30.1008 67.562 30.011 67.6603 29.9401C67.7587 29.8692 67.8702 29.8186 67.9883 29.7914C68.105 29.7593 68.2269 29.7514 68.3467 29.768C68.4666 29.7846 68.5817 29.8255 68.6852 29.8882C68.7887 29.9508 68.8783 30.0339 68.9486 30.1323C69.0189 30.2307 69.0684 30.3425 69.0941 30.4607C69.1332 30.6982 69.0853 30.9418 68.9593 31.1469C68.8332 31.3519 68.6374 31.5046 68.4078 31.5769C68.1733 31.6278 67.9281 31.5861 67.7236 31.4604C67.5191 31.3347 67.3711 31.1347 67.3106 30.9024Z" fill="#222222"/>
<path d="M62.1412 32.7503C62.0898 32.6436 62.0605 32.5276 62.055 32.4093C62.0495 32.291 62.0679 32.1729 62.1092 32.0619C62.1505 31.9509 62.2137 31.8493 62.2951 31.7634C62.3765 31.6774 62.4745 31.6087 62.5831 31.5615C62.8135 31.4683 63.0715 31.4702 63.3005 31.5668C63.5296 31.6633 63.7111 31.8466 63.8053 32.0767C63.8913 32.2911 63.8906 32.5306 63.8032 32.7445C63.7159 32.9584 63.5488 33.13 63.3372 33.2229C63.1141 33.2973 62.8719 33.2908 62.6532 33.2043C62.4344 33.1179 62.2532 32.9571 62.1412 32.7503Z" fill="#222222"/>
<path d="M57.4764 35.6264C57.3991 35.5302 57.3426 35.4189 57.3106 35.2998C57.2786 35.1806 57.2717 35.056 57.2904 34.934C57.309 34.812 57.3529 34.6952 57.4191 34.5911C57.4854 34.4869 57.5726 34.3977 57.6751 34.3291C57.772 34.2513 57.8841 34.1946 58.0042 34.1627C58.1242 34.1308 58.2497 34.1244 58.3724 34.144C58.495 34.1635 58.6123 34.2085 58.7166 34.276C58.8208 34.3436 58.9098 34.4323 58.9777 34.5363C59.1229 34.7348 59.1835 34.9828 59.1462 35.226C59.109 35.4691 58.9769 35.6876 58.779 35.8336C58.5781 35.9769 58.329 36.0355 58.0853 35.9968C57.8416 35.958 57.6229 35.825 57.4764 35.6264Z" fill="#222222"/>
<path d="M53.4693 39.3778C53.3754 39.2977 53.2989 39.1992 53.2447 39.0883C53.1905 38.9774 53.1597 38.8565 53.1542 38.7332C53.1487 38.6099 53.1686 38.4867 53.2127 38.3715C53.2568 38.2562 53.3241 38.1512 53.4105 38.063C53.4928 37.9736 53.5922 37.9018 53.703 37.8519C53.8137 37.802 53.9334 37.775 54.0548 37.7726C54.1763 37.7701 54.297 37.7923 54.4096 37.8378C54.5222 37.8832 54.6245 37.951 54.7103 38.037C54.8795 38.205 54.9779 38.4315 54.9849 38.6698C54.9919 38.9082 54.9071 39.1401 54.748 39.3178C54.5831 39.4896 54.3586 39.5916 54.1206 39.6028C53.8827 39.614 53.6496 39.5335 53.4693 39.3778Z" fill="#222222"/>
<path d="M50.544 43.989C50.427 43.9441 50.3206 43.8752 50.2317 43.7867C50.1428 43.6983 50.0734 43.5922 50.0279 43.4754C49.9824 43.3585 49.9619 43.2335 49.9675 43.1082C49.9732 42.983 50.005 42.8602 50.0608 42.748C50.1146 42.6364 50.1903 42.5367 50.2835 42.4551C50.3767 42.3735 50.4854 42.3115 50.6032 42.2729C50.7209 42.2343 50.8452 42.2199 50.9687 42.2306C51.0921 42.2412 51.2121 42.2767 51.3215 42.3348C51.5299 42.447 51.6876 42.6343 51.7626 42.8587C51.8377 43.0831 51.8244 43.3276 51.7255 43.5425C51.6192 43.7504 51.4393 43.9112 51.2209 43.9938C51.0025 44.0763 50.7612 44.0746 50.544 43.989Z" fill="#222222"/>
<path d="M50.6398 49.3456C50.5229 49.3933 50.3969 49.4149 50.2707 49.4091C50.1445 49.4032 50.0212 49.3699 49.9091 49.3115C49.7971 49.2531 49.6992 49.1711 49.6221 49.071C49.545 48.9709 49.4906 48.8553 49.4627 48.7321C49.4223 48.6122 49.4083 48.485 49.4215 48.3592C49.4348 48.2333 49.475 48.1119 49.5394 48.003C49.6039 47.8941 49.6911 47.8004 49.795 47.7283C49.8989 47.6562 50.0172 47.6073 50.1417 47.585C50.3691 47.5525 50.6007 47.5993 50.7977 47.7175C50.9946 47.8357 51.1449 48.0181 51.2232 48.234C51.2676 48.458 51.2338 48.6905 51.1277 48.8927C51.0216 49.095 50.8494 49.2548 50.6398 49.3456Z" fill="#222222"/>
<path d="M54.4597 53.064C54.4137 53.1831 54.3423 53.2907 54.2505 53.3794C54.1587 53.4681 54.0486 53.5357 53.9281 53.5776C53.8075 53.6196 53.6793 53.6348 53.5522 53.6222C53.4252 53.6096 53.3024 53.5695 53.1925 53.5047C53.0769 53.4521 52.9743 53.3748 52.8918 53.2783C52.8093 53.1818 52.7489 53.0683 52.7149 52.946C52.6809 52.8237 52.6741 52.6954 52.695 52.5701C52.7158 52.4449 52.7638 52.3257 52.8356 52.221C52.9689 52.037 53.1609 51.9039 53.38 51.8435C53.599 51.7832 53.8321 51.7993 54.0408 51.8891C54.2334 52.0085 54.3798 52.1898 54.4559 52.4032C54.532 52.6167 54.5334 52.8497 54.4597 53.064Z" fill="#222222"/>
<path d="M59.8593 53.0948C59.893 53.215 59.9011 53.341 59.883 53.4645C59.8649 53.588 59.8211 53.7064 59.7542 53.8118C59.6874 53.9173 59.5991 54.0075 59.4952 54.0767C59.3912 54.1458 59.2739 54.1922 59.1507 54.2131C59.0295 54.2432 58.9031 54.2471 58.7802 54.2246C58.6573 54.2021 58.5405 54.1537 58.4378 54.0826C58.335 54.0115 58.2486 53.9193 58.1842 53.8121C58.1199 53.705 58.0791 53.5854 58.0646 53.4612C58.0456 53.231 58.107 53.0014 58.2382 52.8112C58.3694 52.6211 58.5623 52.4823 58.7843 52.4183C59.0141 52.3891 59.2469 52.4406 59.443 52.564C59.639 52.6874 59.7862 52.875 59.8593 53.0948Z" fill="#222222"/>
<path d="M64.5129 50.2961C64.601 50.3836 64.6697 50.4888 64.7143 50.6047C64.7589 50.7206 64.7785 50.8446 64.7717 50.9686C64.7649 51.0927 64.732 51.2138 64.6751 51.3242C64.6181 51.4346 64.5384 51.5317 64.4413 51.609C64.3499 51.6941 64.2415 51.7587 64.1232 51.7987C64.0049 51.8386 63.8794 51.8529 63.7552 51.8406C63.6309 51.8283 63.5107 51.7897 63.4025 51.7274C63.2943 51.6651 63.2006 51.5805 63.1277 51.4791C63.0021 51.2882 62.9457 51.06 62.968 50.8325C62.9902 50.6051 63.0896 50.3921 63.2498 50.2291C63.4358 50.093 63.6631 50.0253 63.8933 50.0375C64.1234 50.0497 64.3423 50.1411 64.5129 50.2961Z" fill="#222222"/>
<path d="M67.2223 45.583C67.3428 45.6162 67.455 45.6745 67.5516 45.754C67.6481 45.8335 67.7268 45.9325 67.7825 46.0444C67.8382 46.1564 67.8698 46.2788 67.875 46.4038C67.8802 46.5287 67.8591 46.6534 67.8129 46.7696C67.7732 46.8879 67.709 46.9966 67.6245 47.0885C67.5401 47.1805 67.4372 47.2536 67.3227 47.3032C67.2081 47.3528 67.0844 47.3777 66.9595 47.3764C66.8347 47.375 66.7116 47.3474 66.5981 47.2954C66.3934 47.1911 66.2308 47.0196 66.1376 46.8096C66.0445 46.5995 66.0266 46.3639 66.0868 46.1421C66.1724 45.9243 66.3363 45.7462 66.5463 45.6428C66.7563 45.5394 66.9974 45.5181 67.2223 45.583Z" fill="#222222"/>
<path d="M66.9478 40.1837C67.0658 40.1401 67.1917 40.122 67.3171 40.1306C67.4426 40.1392 67.5648 40.1743 67.6757 40.2336C67.7866 40.2929 67.8837 40.375 67.9606 40.4745C68.0375 40.574 68.0924 40.6887 68.1217 40.811C68.1597 40.9317 68.1716 41.0591 68.1565 41.1847C68.1414 41.3104 68.0997 41.4314 68.0341 41.5396C67.9686 41.6479 67.8807 41.7409 67.7763 41.8125C67.6719 41.8841 67.5535 41.9326 67.4289 41.9547C67.1996 41.988 66.9659 41.9406 66.7677 41.8207C66.5695 41.7008 66.4191 41.5158 66.3421 41.2973C66.2989 41.0703 66.3356 40.8353 66.446 40.6323C66.5564 40.4293 66.7338 40.2708 66.9478 40.1837Z" fill="#222222"/>
<path d="M63.8118 35.7265C63.8983 35.6388 64.0016 35.5695 64.1157 35.5228C64.2297 35.4762 64.352 35.4532 64.4752 35.4552C64.5984 35.4573 64.7199 35.4843 64.8323 35.5347C64.9447 35.5851 65.0458 35.6577 65.1293 35.7483C65.2156 35.8358 65.2832 35.94 65.3277 36.0546C65.3722 36.1692 65.3928 36.2917 65.3882 36.4145C65.3836 36.5373 65.3538 36.6579 65.3008 36.7688C65.2478 36.8797 65.1726 36.9785 65.08 37.0593C64.8937 37.2012 64.6636 37.2733 64.4296 37.263C64.1957 37.2527 63.9728 37.1605 63.7998 37.0027C63.6386 36.8286 63.5501 36.5995 63.5524 36.3622C63.5546 36.125 63.6474 35.8976 63.8118 35.7265Z" fill="#222222"/>
<path d="M59.3333 32.5782C59.3901 32.4694 59.4686 32.3734 59.5638 32.296C59.6591 32.2186 59.7692 32.1616 59.8874 32.1283C60.0056 32.0951 60.1293 32.0864 60.2509 32.1027C60.3725 32.1191 60.4896 32.1601 60.5948 32.2233C60.701 32.2845 60.7937 32.3665 60.8675 32.4644C60.9412 32.5623 60.9944 32.6741 61.0239 32.7931C61.0533 32.9121 61.0585 33.0358 61.039 33.1568C61.0194 33.2778 60.9757 33.3936 60.9103 33.4973C60.7835 33.6982 60.5846 33.843 60.3544 33.902C60.1242 33.9609 59.8802 33.9294 59.6724 33.8141C59.4682 33.6909 59.3191 33.4939 59.256 33.2639C59.1929 33.0339 59.2205 32.7884 59.3333 32.5782Z" fill="#222222"/>
<path d="M54.2419 30.5129C54.2767 30.3952 54.335 30.2858 54.4133 30.1913C54.4915 30.0967 54.5881 30.0189 54.6972 29.9627C54.8062 29.9064 54.9256 29.8728 55.048 29.8638C55.1704 29.8548 55.2933 29.8707 55.4094 29.9105C55.5254 29.9477 55.6326 30.0078 55.7249 30.0871C55.8172 30.1665 55.8926 30.2636 55.9467 30.3727C56.0008 30.4817 56.0325 30.6005 56.0399 30.722C56.0472 30.8435 56.0301 30.9653 55.9896 31.0801C55.9078 31.3051 55.7423 31.49 55.5276 31.5961C55.3129 31.7022 55.0656 31.7214 54.8371 31.6497C54.6108 31.5729 54.4228 31.412 54.312 31.2004C54.2012 30.9888 54.1761 30.7426 54.2419 30.5129Z" fill="#222222"/>
<path d="M48.826 29.6936C48.8251 29.569 48.8501 29.4456 48.8995 29.3311C48.9488 29.2166 49.0214 29.1137 49.1126 29.0287C49.2038 28.9438 49.3116 28.8787 49.4293 28.8376C49.5469 28.7965 49.6719 28.7803 49.7961 28.7901C49.9191 28.7961 50.0395 28.827 50.1502 28.881C50.2608 28.935 50.3594 29.0108 50.4399 29.1039C50.5204 29.1971 50.5811 29.3056 50.6185 29.4229C50.6558 29.5402 50.669 29.6639 50.6571 29.7864C50.6344 30.0228 50.522 30.2416 50.343 30.3978C50.1641 30.554 49.9322 30.6358 49.6948 30.6264C49.4641 30.5963 49.2511 30.4867 49.0925 30.3164C48.9339 30.1462 48.8397 29.9259 48.826 29.6936Z" fill="#222222"/>
<path d="M43.6136 31.1099C43.5653 31.0038 43.5389 30.889 43.5359 30.7724C43.5328 30.6559 43.5533 30.5399 43.5959 30.4314C43.6386 30.3229 43.7027 30.2241 43.7843 30.1408C43.866 30.0575 43.9635 29.9915 44.0712 29.9467C44.183 29.899 44.3033 29.8743 44.4249 29.8739C44.5465 29.8735 44.6669 29.8975 44.779 29.9444C44.8912 29.9913 44.9928 30.0603 45.0779 30.1471C45.163 30.234 45.2298 30.337 45.2744 30.4501C45.3563 30.6662 45.3548 30.905 45.2702 31.1201C45.1856 31.3351 45.024 31.511 44.8168 31.6133C44.5892 31.6873 44.3426 31.6772 44.1218 31.5848C43.901 31.4924 43.7207 31.3239 43.6136 31.1099Z" fill="#222222"/>
<path d="M38.915 34.0069C38.8386 33.912 38.7824 33.8024 38.7501 33.685C38.7177 33.5675 38.7098 33.4447 38.7268 33.324C38.7438 33.2034 38.7854 33.0876 38.8491 32.9837C38.9127 32.8798 38.997 32.79 39.0967 32.72C39.1883 32.638 39.2966 32.5769 39.4141 32.5408C39.5316 32.5047 39.6556 32.4946 39.7774 32.511C39.8993 32.5275 40.0161 32.5702 40.1198 32.6362C40.2235 32.7021 40.3117 32.7898 40.3783 32.8932C40.5067 33.0956 40.5581 33.3374 40.5232 33.5746C40.4883 33.8117 40.3694 34.0284 40.1881 34.1853C39.9946 34.3276 39.7531 34.3886 39.5152 34.3553C39.2773 34.3219 39.0619 34.1969 38.915 34.0069Z" fill="#222222"/>
<path d="M35.1469 37.9752C35.0483 37.9036 34.9653 37.8128 34.9029 37.7082C34.8405 37.6036 34.7999 37.4875 34.7837 37.3668C34.7675 37.2461 34.776 37.1233 34.8086 37.006C34.8412 36.8886 34.8973 36.7791 34.9734 36.6841C35.0426 36.5836 35.132 36.4987 35.236 36.435C35.3401 36.3713 35.4563 36.3302 35.5773 36.3143C35.6982 36.2985 35.8212 36.3082 35.9381 36.3429C36.055 36.3777 36.1633 36.4366 36.256 36.5159C36.4345 36.6777 36.5485 36.8984 36.5773 37.1375C36.606 37.3766 36.5475 37.6181 36.4124 37.8175C36.2642 38.0044 36.0486 38.1257 35.8119 38.1551C35.5752 38.1846 35.3364 38.12 35.1469 37.9752Z" fill="#222222"/>
<path d="M32.5417 42.8001C32.4283 42.756 32.325 42.6891 32.2385 42.6036C32.1519 42.518 32.0838 42.4156 32.0384 42.3026C31.993 42.1897 31.9712 42.0686 31.9744 41.9469C31.9777 41.8252 32.0059 41.7055 32.0572 41.5951C32.1001 41.4807 32.1663 41.3765 32.2516 41.2891C32.337 41.2017 32.4396 41.133 32.553 41.0874C32.6663 41.0418 32.7879 41.0204 32.91 41.0244C33.0321 41.0284 33.1521 41.0577 33.2622 41.1106C33.4728 41.2225 33.6365 41.4059 33.7238 41.6278C33.8111 41.8497 33.8162 42.0955 33.7382 42.3209C33.6374 42.5382 33.4574 42.7088 33.235 42.7979C33.0127 42.8869 32.7647 42.8878 32.5417 42.8001Z" fill="#222222"/>
<path d="M31.1187 48.095C30.9999 48.0715 30.8873 48.0237 30.7878 47.9546C30.6884 47.8855 30.6042 47.7967 30.5407 47.6936C30.4772 47.5906 30.4356 47.4755 30.4185 47.3556C30.4015 47.2357 30.4094 47.1136 30.4417 46.9969C30.4684 46.8789 30.5184 46.7673 30.5888 46.6688C30.6592 46.5703 30.7486 46.4868 30.8516 46.4233C30.9547 46.3598 31.0694 46.3174 31.189 46.2988C31.3086 46.2801 31.4307 46.2855 31.5483 46.3147C31.7824 46.3677 31.9873 46.5082 32.1211 46.7075C32.2549 46.9068 32.3074 47.1497 32.2678 47.3865C32.1994 47.6268 32.0436 47.8328 31.8309 47.9639C31.6182 48.095 31.3641 48.1418 31.1187 48.095Z" fill="#222222"/>
<path d="M30.7715 53.5717C30.6492 53.5759 30.5274 53.5551 30.4134 53.5105C30.2995 53.466 30.1958 53.3987 30.1087 53.3128C30.0216 53.2268 29.953 53.124 29.907 53.0107C29.861 52.8973 29.8386 52.7757 29.8411 52.6534C29.8424 52.5315 29.8679 52.411 29.9161 52.2991C29.9643 52.1871 30.0343 52.0858 30.122 52.0012C30.2097 51.9165 30.3134 51.8501 30.427 51.8058C30.5406 51.7615 30.6618 51.7403 30.7837 51.7433C31.023 51.7496 31.2502 51.8499 31.416 52.0226C31.5818 52.1952 31.6729 52.4262 31.6696 52.6656C31.6686 52.9042 31.5739 53.1329 31.4059 53.3024C31.238 53.4719 31.0101 53.5686 30.7715 53.5717Z" fill="#222222"/>
<path d="M31.3351 59.04C31.2156 59.062 31.0928 59.0598 30.9742 59.0337C30.8555 59.0075 30.7433 58.9578 30.6441 58.8875C30.5449 58.8173 30.4608 58.7279 30.3968 58.6246C30.3327 58.5213 30.29 58.4062 30.2712 58.2862C30.2475 58.1666 30.2487 58.0434 30.2746 57.9243C30.3005 57.8052 30.3506 57.6927 30.4217 57.5938C30.4929 57.4948 30.5836 57.4115 30.6883 57.3491C30.793 57.2867 30.9093 57.2464 31.0302 57.2308C31.2677 57.2107 31.5046 57.2762 31.6981 57.4154C31.8916 57.5545 32.029 57.7583 32.0856 57.9898C32.1182 58.2276 32.0586 58.4688 31.9191 58.6641C31.7795 58.8593 31.5706 58.9938 31.3351 59.04Z" fill="#222222"/>
<path d="M144.752 25.8674L143.073 25.2706C142.241 24.9749 139.824 23.1185 136.906 21.0755L136.54 18.0918C136.629 17.9365 136.705 17.7734 136.765 17.6045C137.033 16.8428 136.99 16.0058 136.644 15.2759C136.298 14.546 135.678 13.9823 134.918 13.7077L124.236 9.90984C123.473 9.64331 122.636 9.6889 121.907 10.0367C121.178 10.3845 120.616 11.0063 120.344 11.7666C120.301 11.863 120.266 11.9624 120.238 12.0642L118.27 13.6337C112.272 12.6874 106.545 12.2844 106.545 12.2844L97.1288 8.93683C96.1998 8.60883 95.1787 8.6622 94.2889 9.08524C93.3992 9.50828 92.7132 10.2666 92.3812 11.1941L83.3394 36.627C83.0114 37.556 83.0648 38.5771 83.4878 39.4669C83.9109 40.3566 84.6691 41.0426 85.5967 41.3746L133.25 58.316C134.179 58.644 135.2 58.5907 136.09 58.1676C136.98 57.7446 137.666 56.9863 137.998 56.0587L147.039 30.6259C147.203 30.1633 147.273 29.673 147.246 29.1831C147.22 28.6932 147.097 28.2135 146.884 27.7713C146.671 27.3292 146.374 26.9334 146.008 26.6067C145.642 26.2799 145.215 26.0287 144.752 25.8674Z" fill="#00B8E4"/>
<path d="M114.564 49.928C123.06 52.9485 132.396 48.5097 135.416 40.0137C138.437 31.5177 133.998 22.1818 125.502 19.1614C117.006 16.1409 107.67 20.5797 104.649 29.0757C101.629 37.5717 106.068 46.9076 114.564 49.928Z" fill="#56C4E9"/>
<path d="M102.098 13.9614C101.656 15.2052 99.9491 15.7759 98.2932 15.1872C96.6374 14.5985 95.6628 13.1089 96.1158 11.8346C96.5689 10.5603 98.2727 10.0229 99.9209 10.6088C101.569 11.1948 102.543 12.71 102.098 13.9614Z" fill="#FF7C00"/>
<path d="M115.991 13.3475L107.612 12.354C107.225 12.3065 106.873 12.108 106.633 11.8018C106.392 11.4957 106.282 11.1067 106.328 10.7199C106.349 10.5272 106.409 10.3406 106.503 10.1711C106.597 10.0015 106.724 9.85238 106.876 9.73222C107.028 9.61207 107.203 9.52331 107.39 9.47111C107.577 9.41891 107.772 9.40431 107.964 9.42813L116.344 10.4216C116.73 10.4691 117.082 10.6676 117.323 10.9738C117.563 11.28 117.673 11.669 117.628 12.0557C117.606 12.2485 117.547 12.435 117.453 12.6046C117.358 12.7741 117.232 12.9233 117.079 13.0434C116.927 13.1636 116.752 13.2523 116.566 13.3045C116.379 13.3567 116.184 13.3714 115.991 13.3475Z" fill="#D42415"/>
<path d="M114.86 49.0963C122.896 51.9535 131.727 47.7546 134.584 39.718C137.442 31.6814 133.243 22.8503 125.206 19.9931C117.17 17.136 108.338 21.3348 105.481 29.3714C102.624 37.408 106.823 46.2392 114.86 49.0963Z" fill="white"/>
<path d="M115.502 47.2876C122.54 49.7897 130.274 46.1127 132.776 39.0749C135.278 32.037 131.601 24.3034 124.563 21.8014C117.525 19.2993 109.792 22.9763 107.29 30.0141C104.788 37.052 108.465 44.7856 115.502 47.2876Z" fill="#46B2D8"/>
<path d="M133.825 17.5565L122.738 13.6148C122.4 13.4946 122.123 13.2451 121.969 12.9212C121.815 12.5972 121.796 12.2254 121.917 11.8874C122.037 11.5488 122.286 11.2715 122.611 11.1162C122.935 10.9609 123.307 10.9401 123.647 11.0585L134.734 15.0002C135.072 15.1226 135.348 15.3738 135.501 15.6989C135.654 16.024 135.673 16.3965 135.552 16.7352C135.432 17.0732 135.183 17.3495 134.859 17.5036C134.535 17.6576 134.163 17.6766 133.825 17.5565Z" fill="#F0F0F0"/>
<path d="M130.943 37.9938C128.815 38.9992 125.565 36.632 123.699 32.6939C121.833 28.7558 122.056 24.7438 124.141 23.7144C126.226 22.6851 129.511 25.0735 131.385 29.0143C133.259 32.9552 133.074 36.9807 130.943 37.9938Z" fill="#56C4E9"/>
<path d="M112.612 43.0888C111.257 43.7331 109.293 42.4159 108.208 40.148C107.123 37.8801 107.344 35.5433 108.704 34.8838C110.065 34.2243 112.024 35.5567 113.101 37.8219C114.178 40.0871 113.956 42.4495 112.612 43.0888Z" fill="#56C4E9"/>
<path d="M5.36141 55.9923L45.0532 49.3734C45.2922 49.3335 45.5372 49.3902 45.7343 49.531C45.9315 49.6718 46.0647 49.8852 46.1045 50.1242L50.179 74.558L8.67914 81.4784L4.60461 57.0446C4.56475 56.8056 4.62147 56.5606 4.76227 56.3635C4.90307 56.1663 5.11643 56.0331 5.35541 55.9933L5.36141 55.9923Z" fill="white"/>
<path d="M4.99219 86.8223L54.9741 78.4874L55.0277 78.8088C55.0473 78.9267 55.0194 79.0475 54.9499 79.1448C54.8804 79.2421 54.7752 79.3077 54.6573 79.3274L5.11991 87.5882L4.99219 86.8223Z" fill="#424242"/>
<path d="M44.698 50.8337L6.17456 57.2578L10.0052 80.2289L48.5286 73.8048L44.698 50.8337Z" fill="#424242"/>
<path d="M54.6789 78.8637L5.42082 87.0779C5.34711 87.0873 5.27223 87.075 5.20543 87.0424C5.13863 87.0098 5.08283 86.9584 5.04493 86.8945C5.00702 86.8305 4.98865 86.7569 4.9921 86.6827C4.99555 86.6084 5.02067 86.5368 5.06434 86.4767L8.71777 81.4684L50.2267 74.5464L54.823 78.1914C54.8801 78.2352 54.9236 78.2943 54.9484 78.3619C54.9733 78.4295 54.9785 78.5027 54.9634 78.5731C54.9483 78.6435 54.9136 78.7081 54.8632 78.7596C54.8128 78.811 54.7489 78.8471 54.6789 78.8637Z" fill="#DEDFE3"/>
<path d="M49.2162 77.7808L10.2033 84.2865C9.94195 84.3301 9.77424 84.1018 9.93992 83.9291L11.465 81.3934L47.099 75.4512L49.3569 77.3653C49.5586 77.4829 49.4655 77.7392 49.2162 77.7808Z" fill="#424242"/>
<path d="M37.4829 81.3579L22.9038 83.7891L23.7361 82.2827L36.1978 80.2046L37.4829 81.3579Z" fill="#424242"/>
</svg>
