<svg width="106" height="80" viewBox="0 0 106 80" fill="none" xmlns="http://www.w3.org/2000/svg">
<path d="M48.9999 50.6135L57.536 62.1488L62.1636 56.5686L48.9999 50.6135Z" fill="#222222"/>
<path d="M59.4535 58.55C59.3767 58.6433 59.2818 58.7203 59.1746 58.7761C59.0674 58.832 58.95 58.8657 58.8295 58.8753C58.709 58.8848 58.5878 58.8699 58.4731 58.8316C58.3584 58.7932 58.2527 58.7321 58.1621 58.652C58.0676 58.576 57.9895 58.4815 57.9328 58.3742C57.8761 58.267 57.8419 58.1493 57.8324 58.0283C57.8228 57.9074 57.8381 57.7858 57.8773 57.6709C57.9164 57.5561 57.9786 57.4505 58.0601 57.3606C58.2198 57.179 58.444 57.0668 58.6851 57.0478C58.9262 57.0287 59.1652 57.1044 59.3515 57.2586C59.5309 57.4197 59.6415 57.6436 59.6605 57.8839C59.6795 58.1243 59.6054 58.3627 59.4535 58.55Z" fill="#222222"/>
<path d="M63.8882 61.7612C63.8231 61.8643 63.7381 61.9535 63.6381 62.0235C63.5382 62.0935 63.4253 62.1429 63.3061 62.1688C63.1869 62.1948 63.0637 62.1968 62.9437 62.1747C62.8237 62.1526 62.7093 62.1068 62.6072 62.0401C62.5043 61.9743 62.4159 61.8883 62.3473 61.7872C62.2787 61.6862 62.2314 61.5722 62.2083 61.4523C62.1851 61.3324 62.1866 61.209 62.2127 61.0897C62.2388 60.9704 62.2888 60.8577 62.3599 60.7583C62.4974 60.5627 62.705 60.4276 62.9396 60.381C63.1742 60.3345 63.4176 60.3801 63.6195 60.5084C63.8183 60.6413 63.9576 60.8464 64.0078 61.0803C64.058 61.3141 64.0151 61.5584 63.8882 61.7612Z" fill="#222222"/>
<path d="M68.7082 64.3879C68.6026 64.6094 68.4138 64.7802 68.1828 64.863C67.9518 64.9459 67.6975 64.9341 67.4752 64.8303C67.3633 64.7819 67.2625 64.7112 67.1791 64.6223C67.0956 64.5334 67.0314 64.4284 66.9902 64.3137C66.9491 64.1989 66.9319 64.077 66.9398 63.9553C66.9477 63.8337 66.9806 63.715 67.0362 63.6066C67.1449 63.3928 67.3311 63.2286 67.5568 63.1477C67.7826 63.0667 68.0307 63.0751 68.2505 63.171C68.3622 63.2188 68.4631 63.2886 68.5471 63.3764C68.631 63.4642 68.6964 63.5681 68.7392 63.6818C68.7819 63.7955 68.8012 63.9166 68.7959 64.038C68.7906 64.1594 68.7608 64.2784 68.7082 64.3879Z" fill="#222222"/>
<path d="M73.8508 66.3148C73.767 66.5441 73.6022 66.7347 73.3875 66.8509C73.1728 66.967 72.923 67.0006 72.6853 66.9454C72.5684 66.9075 72.4602 66.8465 72.3672 66.7662C72.2743 66.6858 72.1983 66.5876 72.1439 66.4773C72.0895 66.3671 72.0578 66.2471 72.0505 66.1244C72.0433 66.0017 72.0607 65.8788 72.1018 65.763C72.1811 65.5374 72.3461 65.3522 72.5609 65.2473C72.7758 65.1424 73.0233 65.1263 73.2499 65.2024C73.3627 65.2355 73.4678 65.2906 73.5592 65.3646C73.6506 65.4386 73.7264 65.5299 73.7822 65.6333C73.8381 65.7368 73.8729 65.8503 73.8847 65.9672C73.8965 66.0842 73.885 66.2023 73.8508 66.3148Z" fill="#222222"/>
<path d="M79.2284 67.4457C79.215 67.5665 79.1767 67.6833 79.116 67.7886C79.0552 67.8939 78.9733 67.9854 78.8753 68.0575C78.7774 68.1296 78.6656 68.1806 78.547 68.2072C78.4284 68.2339 78.3055 68.2358 78.1862 68.2126C78.0645 68.1942 77.9477 68.1516 77.8428 68.0872C77.7378 68.0229 77.6469 67.9381 77.5753 67.838C77.5037 67.7378 77.453 67.6244 77.426 67.5043C77.3991 67.3842 77.3965 67.2599 77.4185 67.1387C77.4598 66.9053 77.5906 66.6973 77.783 66.5588C77.9754 66.4204 78.2142 66.3624 78.4487 66.3974C78.6828 66.4496 78.8903 66.5842 79.0334 66.7766C79.1765 66.969 79.2458 67.2065 79.2284 67.4457Z" fill="#222222"/>
<path d="M84.7102 67.5934C84.7151 67.7145 84.6958 67.8354 84.6534 67.949C84.611 68.0625 84.5463 68.1665 84.4631 68.2547C84.38 68.3429 84.28 68.4136 84.1691 68.4627C84.0583 68.5118 83.9387 68.5382 83.8175 68.5404C83.6968 68.5477 83.5758 68.5303 83.462 68.4892C83.3482 68.4482 83.244 68.3844 83.1557 68.3018C83.0673 68.2191 82.9968 68.1193 82.9484 68.0085C82.8999 67.8976 82.8746 67.7781 82.8739 67.6571C82.8847 67.4167 82.9818 67.1882 83.1476 67.0136C83.3133 66.839 83.5364 66.73 83.7759 66.7067C84.016 66.7054 84.2473 66.7969 84.4214 66.9621C84.5955 67.1274 84.699 67.3536 84.7102 67.5934Z" fill="#222222"/>
<path d="M90.1497 66.8532C90.178 66.9682 90.1827 67.0877 90.1636 67.2046C90.1446 67.3215 90.1021 67.4333 90.0388 67.5334C89.9755 67.6334 89.8927 67.7197 89.7953 67.787C89.6978 67.8543 89.5878 67.9013 89.4718 67.925C89.2271 67.9686 88.9751 67.9134 88.7709 67.7717C88.5667 67.6299 88.4271 67.413 88.3824 67.1684C88.3425 66.9409 88.3927 66.7067 88.5224 66.5154C88.6521 66.3242 88.851 66.1909 89.0772 66.1437C89.3109 66.1169 89.5465 66.1734 89.7426 66.3032C89.9388 66.4329 90.0829 66.6277 90.1497 66.8532Z" fill="#222222"/>
<path d="M95.3078 65.003C95.3636 65.1131 95.3959 65.2336 95.4026 65.3568C95.4093 65.48 95.3904 65.6033 95.3469 65.7188C95.3034 65.8344 95.2363 65.9396 95.15 66.0278C95.0637 66.116 94.9599 66.1853 94.8454 66.2312C94.7346 66.2874 94.6132 66.3196 94.4891 66.326C94.365 66.3324 94.241 66.3127 94.125 66.2683C94.009 66.2238 93.9035 66.1556 93.8155 66.068C93.7274 65.9803 93.6587 65.8752 93.6138 65.7594C93.5127 65.5351 93.5047 65.28 93.5913 65.0498C93.678 64.8196 93.8524 64.6331 94.0762 64.5311C94.3023 64.4324 94.5582 64.4265 94.7887 64.5148C95.0191 64.603 95.2056 64.7784 95.3078 65.003Z" fill="#222222"/>
<path d="M100.004 62.1605C100.079 62.2583 100.134 62.3705 100.164 62.4902C100.194 62.6099 100.199 62.7345 100.179 62.8563C100.159 62.9781 100.114 63.0945 100.047 63.1982C99.9802 63.3019 99.8926 63.3907 99.7898 63.4591C99.6909 63.5295 99.5787 63.5793 99.4601 63.6052C99.3414 63.6312 99.2187 63.6329 99.0994 63.6101C98.9801 63.5874 98.8666 63.5408 98.7658 63.4731C98.665 63.4053 98.5789 63.3179 98.5128 63.216C98.3818 63.0167 98.3324 62.7747 98.3748 62.5401C98.4172 62.3054 98.548 62.096 98.7404 61.9551C98.9373 61.821 99.1781 61.7676 99.4132 61.8058C99.6483 61.844 99.8597 61.971 100.004 62.1605Z" fill="#222222"/>
<path d="M103.819 58.253C103.924 58.3211 104.014 58.4105 104.082 58.5154C104.151 58.6203 104.197 58.7384 104.217 58.8622C104.238 58.9859 104.232 59.1125 104.201 59.2339C104.169 59.3553 104.113 59.4688 104.035 59.5671C103.959 59.6652 103.865 59.747 103.757 59.8076C103.648 59.8682 103.529 59.9064 103.406 59.9198C103.283 59.9333 103.158 59.9217 103.04 59.8858C102.921 59.8498 102.811 59.7903 102.716 59.7108C102.535 59.5581 102.42 59.3422 102.393 59.1071C102.366 58.8721 102.429 58.6356 102.57 58.4457C102.717 58.2643 102.927 58.1441 103.157 58.1085C103.388 58.0729 103.624 58.1244 103.819 58.253Z" fill="#222222"/>
<path d="M30.39 18.98C30.39 18.98 47.4399 29.16 48.5699 32.15C51.8499 40.78 55.15 50.93 57.7 56.15C57.5289 56.2286 57.3731 56.3369 57.24 56.47L58.5899 57.81L42.5899 41.81C43.0047 41.2178 43.198 40.4985 43.1358 39.7782C43.0736 39.0579 42.76 38.3824 42.2499 37.87C41.9645 37.5822 41.625 37.3537 41.2508 37.1978C40.8766 37.0418 40.4753 36.9616 40.0699 36.9616C39.6646 36.9616 39.2633 37.0418 38.8891 37.1978C38.5149 37.3537 38.1754 37.5822 37.89 37.87L24.6799 24.65L30.39 18.98Z" fill="#FFB93E"/>
<path d="M57.7 56.16C58.0345 55.9877 58.4151 55.9258 58.787 55.9833C59.1589 56.0408 59.5031 56.2147 59.77 56.48C60.1058 56.8173 60.2944 57.274 60.2944 57.75C60.2944 58.226 60.1058 58.6827 59.77 59.02L58.58 57.82L57.23 56.48C57.3661 56.346 57.5254 56.2376 57.7 56.16Z" fill="#00608A"/>
<path d="M37.92 37.92C37.6325 38.2045 37.4042 38.5432 37.2484 38.9166C37.0926 39.2899 37.0124 39.6904 37.0124 40.0949C37.0124 40.4995 37.0926 40.9 37.2484 41.2733C37.4042 41.6466 37.6325 41.9854 37.92 42.27C38.4301 42.7834 39.1052 43.1 39.8261 43.1641C40.547 43.2281 41.2674 43.0354 41.86 42.62L56.48 57.24C56.3494 57.3714 56.2412 57.5234 56.16 57.6899C50.97 55.1499 40.83 51.8499 32.16 48.5699C29.16 47.4399 18.99 30.39 18.99 30.39L24.68 24.7L37.92 37.92Z" fill="#C7731B"/>
<path d="M56.16 57.69C56.2413 57.5234 56.3494 57.3714 56.48 57.24L59.02 59.78C58.6844 60.1152 58.2294 60.3035 57.755 60.3035C57.2806 60.3035 56.8257 60.1152 56.49 59.78C56.2187 59.5127 56.0402 59.1655 55.9808 58.7893C55.9214 58.4131 55.9842 58.0278 56.16 57.69Z" fill="#2481FF"/>
<path d="M6.57007 6.58002L13.1501 0L30.5701 16.21C30.706 16.3229 30.8066 16.4724 30.8598 16.6409C30.913 16.8094 30.9165 16.9896 30.8701 17.16L30.3801 19.02L24.7001 24.7L6.57007 6.58002Z" fill="#656565"/>
<path d="M16.21 30.5801L0 13.1601L6.58002 6.58008L24.71 24.7001L19.02 30.3901L17.16 30.8801C16.9892 30.9175 16.8117 30.9094 16.645 30.8568C16.4783 30.8041 16.3283 30.7088 16.21 30.5801Z" fill="#323232"/>
</svg>
