<svg width="1440" height="650" viewBox="0 0 1440 650" fill="none" xmlns="http://www.w3.org/2000/svg">
<g clip-path="url(#clip0_75_95)">
<rect width="1440" height="650" fill="#191919"/>
<path d="M-95 530.715C-94 523.575 -93.22 516.405 -92 509.295C-80.18 437.295 -23.71 375.535 47.18 357.675C107.66 342.445 163.25 353.255 213.53 390.345C218.1 393.715 218.98 398.215 215.96 401.895C213.28 405.165 209.08 405.225 204.87 402.605C193.87 395.775 183.22 388.125 171.58 382.605C134.74 365.165 95.86 360.605 56.52 370.985C-17.28 390.445 -63.3 438.215 -77 513.065C-88.38 575.065 -68.78 628.715 -23 672.495C-22.31 673.165 -21.51 673.735 -20.4 674.645C-12.4 641.445 5.60001 615.645 34.46 597.765C55.1777 584.826 79.4353 578.718 103.81 580.305C157.38 583.305 202.37 621.165 214.51 674.565C215.51 673.805 216.37 673.215 217.14 672.495C250.74 641.025 269.74 602.495 273.42 556.565C276.42 519.565 268.25 485.025 249.55 452.945C249.17 452.305 248.8 451.655 248.47 450.945C246.47 446.945 247.47 442.945 251 440.805C251.841 440.256 252.789 439.892 253.781 439.736C254.773 439.58 255.787 439.636 256.756 439.899C257.724 440.163 258.627 440.628 259.403 441.265C260.179 441.902 260.812 442.696 261.26 443.595C266.48 453.645 271.85 463.665 276.16 474.115C283.076 491.25 287.198 509.384 288.37 527.825C288.506 528.806 288.717 529.775 289 530.725V554.675C288.69 557.135 288.35 559.585 288.08 562.045C283.67 602.375 268.46 638.045 241.65 668.605C211.883 702.498 174.69 723.435 130.07 731.415C123.07 732.645 116.07 733.415 109 734.315H85C84.0556 734.044 83.0932 733.84 82.12 733.705C49.48 731.165 19.28 721.235 -7.94 703.085C-53.84 672.465 -82 630.005 -92.07 575.715C-93.35 568.715 -94.07 561.715 -95 554.665V530.715ZM96.33 719.385C131.96 719.125 164.24 709.845 193.62 690.755C201.52 685.615 201.52 685.615 199.31 676.265C184.54 613.975 119.81 579.155 59.7 601.995C23.13 615.885 1.48001 643.125 -6.42999 681.325C-7.05 684.325 -6.43001 686.185 -3.71001 688.075C25.699 708.396 60.5829 719.314 96.33 719.385Z" fill="#161616"/>
<path d="M97.14 430.415C115.015 430.462 132.141 437.594 144.768 450.246C157.394 462.898 164.489 480.04 164.5 497.915C164.415 515.79 157.249 532.903 144.57 545.505C131.892 558.106 114.736 565.169 96.86 565.145C78.9784 565.092 61.8471 557.952 49.2206 545.29C36.5942 532.628 29.5026 515.476 29.5 497.595C29.5978 479.728 36.7702 462.628 49.4472 450.037C62.1241 437.446 79.273 430.391 97.14 430.415ZM149.5 497.685C149.434 483.8 143.875 470.505 134.038 460.705C124.201 450.906 110.885 445.398 97 445.385C83.1139 445.395 69.7967 450.902 59.959 460.702C50.1214 470.503 44.5634 483.799 44.5 497.685C44.5092 504.591 45.8794 511.428 48.5324 517.805C51.1854 524.181 55.0692 529.973 59.9616 534.847C64.8541 539.722 70.6593 543.585 77.0455 546.215C83.4316 548.845 90.2735 550.19 97.18 550.175C111.065 550.109 124.36 544.552 134.163 534.718C143.965 524.883 149.479 511.57 149.5 497.685Z" fill="#161616"/>
<path d="M234.88 412.475C236.823 412.464 238.695 413.202 240.109 414.535C241.522 415.869 242.368 417.695 242.47 419.635C242.497 420.627 242.328 421.615 241.972 422.542C241.616 423.469 241.081 424.316 240.398 425.036C239.714 425.756 238.895 426.334 237.988 426.737C237.081 427.14 236.103 427.36 235.11 427.385C234.117 427.391 233.133 427.201 232.213 426.826C231.294 426.45 230.458 425.897 229.753 425.197C229.049 424.497 228.49 423.665 228.108 422.748C227.727 421.831 227.53 420.848 227.53 419.855C227.568 417.915 228.354 416.064 229.723 414.689C231.093 413.314 232.94 412.521 234.88 412.475Z" fill="#161616"/>
<path d="M927 208.564C928.795 195.749 930.195 182.88 932.385 170.118C953.6 40.8878 1054.96 -69.9634 1182.19 -102.02C1290.75 -129.356 1390.53 -109.953 1480.77 -43.3814C1488.97 -37.3327 1490.55 -29.2558 1485.13 -22.6507C1480.32 -16.7814 1472.78 -16.6737 1465.23 -21.3763C1445.48 -33.6352 1426.37 -47.366 1405.48 -57.2737C1339.35 -88.5762 1269.57 -96.7608 1198.96 -78.1301C1066.5 -43.2019 983.897 42.539 959.308 176.885C938.882 288.167 974.061 384.462 1056.23 463.041C1057.47 464.244 1058.9 465.267 1060.9 466.9C1075.26 407.31 1107.56 361.003 1159.36 328.911C1196.55 305.686 1240.09 294.725 1283.84 297.572C1379.99 302.957 1460.74 370.91 1482.53 466.757C1484.33 465.392 1485.87 464.333 1487.25 463.041C1547.56 406.557 1581.66 337.4 1588.27 254.962C1593.65 188.552 1578.99 126.557 1545.42 68.9775C1544.74 67.8288 1544.08 66.6621 1543.48 65.3877C1539.89 58.2082 1541.69 51.0287 1548.02 47.1877C1549.53 46.2038 1551.24 45.5503 1553.02 45.2703C1554.8 44.9902 1556.62 45.09 1558.36 45.5629C1560.09 46.0358 1561.71 46.8712 1563.11 48.0143C1564.5 49.1574 1565.64 50.5823 1566.44 52.1954C1575.81 70.2339 1585.45 88.2184 1593.18 106.975C1605.6 137.73 1613 170.278 1615.1 203.377C1615.34 205.139 1615.72 206.879 1616.23 208.582V251.57C1615.67 255.985 1615.06 260.382 1614.58 264.798C1606.66 337.185 1579.36 401.208 1531.24 456.059C1477.82 516.893 1411.06 554.472 1330.97 568.795C1318.41 571.003 1305.84 572.385 1293.15 574H1250.08C1248.38 573.513 1246.65 573.148 1244.91 572.905C1186.32 568.346 1132.12 550.523 1083.26 517.946C1000.88 462.987 950.333 386.777 932.259 289.334C929.962 276.77 928.669 264.205 927 251.552V208.564ZM1270.41 547.203C1334.36 546.736 1392.3 530.08 1445.04 495.815C1459.21 486.59 1459.21 486.59 1455.25 469.808C1428.74 358.005 1312.56 295.508 1204.67 336.503C1139.03 361.434 1100.17 410.326 1085.97 478.89C1084.86 484.274 1085.97 487.613 1090.85 491.005C1143.64 527.48 1206.25 547.076 1270.41 547.203Z" fill="#1C1C1C"/>
<path d="M1271.87 28.5391C1303.95 28.6245 1334.69 41.4243 1357.35 64.1338C1380.01 86.8432 1392.75 117.61 1392.77 149.693C1392.62 181.777 1379.75 212.493 1357 235.111C1334.24 257.729 1303.45 270.405 1271.36 270.362C1239.27 270.267 1208.52 257.452 1185.86 234.725C1163.19 211.998 1150.47 181.214 1150.46 149.118C1150.64 117.05 1163.51 86.357 1186.26 63.7583C1209.02 41.1595 1239.8 28.4958 1271.87 28.5391ZM1365.85 149.28C1365.73 124.358 1355.75 100.496 1338.09 82.9068C1320.44 65.3178 1296.54 55.4317 1271.61 55.4083C1246.69 55.427 1222.79 65.3116 1205.13 82.9016C1187.47 100.492 1177.5 124.357 1177.38 149.28C1177.4 161.676 1179.86 173.948 1184.62 185.393C1189.38 196.838 1196.35 207.233 1205.14 215.982C1213.92 224.732 1224.34 231.665 1235.8 236.385C1247.26 241.106 1259.54 243.521 1271.94 243.493C1296.86 243.374 1320.72 233.4 1338.32 215.749C1355.91 198.098 1365.81 174.202 1365.85 149.28Z" fill="#1C1C1C"/>
</g>
<defs>
<clipPath id="clip0_75_95">
<rect width="1440" height="650" fill="white"/>
</clipPath>
</defs>
</svg>
