<svg width="1440" height="266" viewBox="0 0 1440 266" fill="none" xmlns="http://www.w3.org/2000/svg">
<g clip-path="url(#clip0_75_4688)">
<rect width="1440" height="266" fill="#191919"/>
<path d="M1409.4 32.5882C1402.82 25.9925 1397.63 18.1313 1394.17 9.47871C1390.71 0.826134 1389.03 -8.43845 1389.25 -17.7562C1389.46 -27.074 1391.56 -36.2518 1395.42 -44.7361C1399.28 -53.2203 1404.81 -60.8352 1411.69 -67.1213C1424.59 -78.7979 1441.43 -85.1446 1458.82 -84.8787C1476.21 -84.6128 1492.86 -77.754 1505.39 -65.6887C1511.92 -59.3014 1517.12 -51.6821 1520.69 -43.2716C1524.26 -34.861 1526.12 -25.8263 1526.17 -16.6903C1526.23 -7.55434 1524.47 1.50153 1521 9.95314C1517.53 18.4047 1512.42 26.0844 1505.96 32.5474L1510.34 34.9214C1546.77 55.9603 1566.54 87.2322 1568.91 129.392C1569.35 136.042 1568.12 142.697 1565.33 148.747C1562.53 154.797 1558.26 160.048 1552.91 164.02C1540.89 173.169 1526.85 179.303 1511.98 181.907C1471.33 191.351 1428.91 189.94 1388.98 177.814C1382.98 175.867 1377.2 173.33 1371.7 170.242C1351.24 158.985 1343.79 143.268 1347.14 120.264C1349.2 101.978 1355.78 84.4931 1366.3 69.3969C1376.82 54.3007 1390.95 42.0706 1407.4 33.8163C1408.13 33.4888 1408.75 32.9976 1409.4 32.5882ZM1458.97 157.757C1463.64 157.553 1469.78 157.471 1475.91 156.98C1492.3 156.234 1508.44 152.704 1523.64 146.542C1538.42 139.993 1540.01 136.432 1537.6 120.632C1534.46 101.288 1524.46 83.7223 1509.42 71.1531C1494.39 58.5839 1475.33 51.8533 1455.74 52.1945C1413.13 53.136 1376.94 88.7466 1376.7 131.316C1376.53 133.209 1376.89 135.111 1377.75 136.805C1378.62 138.499 1379.94 139.916 1381.57 140.894C1386.27 143.786 1391.2 146.291 1396.3 148.384C1416.11 155.752 1436.7 157.307 1458.97 157.757ZM1457.58 21.5777C1462.6 21.6652 1467.59 20.7475 1472.25 18.8788C1476.91 17.0102 1481.15 14.2281 1484.72 10.6965C1488.29 7.16485 1491.11 2.95486 1493.03 -1.68569C1494.95 -6.32625 1495.92 -11.3036 1495.89 -16.3251C1495.92 -21.3424 1494.95 -26.3152 1493.04 -30.9558C1491.13 -35.5965 1488.32 -39.8127 1484.78 -43.3605C1481.23 -46.9083 1477.01 -49.7173 1472.37 -51.6248C1467.73 -53.5323 1462.76 -54.5006 1457.74 -54.4735C1452.72 -54.5008 1447.74 -53.5294 1443.1 -51.6158C1438.46 -49.7022 1434.25 -46.8847 1430.7 -43.327C1427.16 -39.7694 1424.36 -35.5427 1422.47 -30.893C1420.58 -26.2433 1419.63 -21.2635 1419.67 -16.2433C1419.65 -11.262 1420.61 -6.32497 1422.51 -1.71867C1424.4 2.88763 1427.19 7.07144 1430.72 10.59C1434.25 14.1085 1438.44 16.8916 1443.05 18.7778C1447.66 20.664 1452.6 21.6157 1457.58 21.5777Z" fill="#292929"/>
<path d="M1196.8 194.268C1190.26 187.572 1185.13 179.624 1181.73 170.9C1178.33 162.175 1176.72 152.854 1177.01 143.494C1177.29 134.134 1179.47 124.929 1183.39 116.429C1187.32 107.929 1192.93 100.309 1199.87 94.0264C1212.53 82.9737 1228.78 76.9071 1245.58 76.9598C1262.39 77.0125 1278.6 83.181 1291.19 94.3129C1298.05 100.517 1303.6 108.035 1307.5 116.422C1311.4 124.808 1313.58 133.893 1313.91 143.137C1314.24 152.381 1312.71 161.597 1309.41 170.24C1306.11 178.882 1301.11 186.774 1294.71 193.45C1304.66 200.411 1314.23 207.913 1323.36 215.921C1343.76 235.521 1355.63 262.348 1356.44 290.621C1356.93 297.9 1355.48 305.181 1352.22 311.708C1348.96 318.235 1344.01 323.773 1337.89 327.746C1324.67 336.766 1309.57 342.659 1293.73 344.979C1256.15 352.658 1217.28 351.255 1180.35 340.885C1173.41 338.85 1166.7 336.107 1160.33 332.699C1139.01 321.32 1131.35 305.684 1134.79 281.903C1136.91 263.716 1143.51 246.339 1154.01 231.336C1164.5 216.332 1178.56 204.172 1194.92 195.946C1195.47 195.639 1196 195.297 1196.52 194.923C1196.62 194.853 1196.7 194.754 1196.76 194.638C1196.81 194.522 1196.82 194.393 1196.8 194.268ZM1245.31 319.601C1253.82 319.069 1262.33 318.864 1270.81 317.964C1285.8 316.923 1300.48 313.15 1314.11 306.83C1325.98 300.854 1327.29 298.276 1325.61 285.218C1325.61 284.891 1325.61 284.564 1325.61 284.277C1324.25 273.541 1320.74 263.188 1315.3 253.834C1309.86 244.479 1302.59 236.314 1293.93 229.823C1285.27 223.333 1275.4 218.648 1264.89 216.049C1254.39 213.45 1243.47 212.989 1232.78 214.693C1213.99 217.696 1196.86 227.209 1184.38 241.568C1171.9 255.928 1164.86 274.219 1164.51 293.241C1164.35 294.98 1164.68 296.727 1165.46 298.289C1166.24 299.85 1167.44 301.163 1168.93 302.082C1174.15 305.253 1179.63 307.991 1185.3 310.269C1204.65 316.686 1224.92 319.84 1245.31 319.601ZM1207.08 145.314C1207.05 150.35 1208.02 155.341 1209.93 160.001C1211.84 164.66 1214.65 168.896 1218.2 172.465C1221.76 176.033 1225.98 178.864 1230.63 180.793C1235.28 182.723 1240.27 183.713 1245.31 183.708C1255.37 183.676 1265.01 179.67 1272.13 172.564C1279.25 165.457 1283.28 155.825 1283.33 145.764C1283.37 140.739 1282.43 135.754 1280.54 131.096C1278.65 126.439 1275.86 122.199 1272.33 118.621C1268.81 115.042 1264.61 112.196 1259.97 110.244C1255.34 108.293 1250.37 107.274 1245.35 107.247C1235.26 107.28 1225.59 111.299 1218.45 118.43C1211.31 125.561 1207.28 135.224 1207.24 145.314H1207.08Z" fill="#292929"/>
<path d="M1264.46 -54.5138H1192.46C1174.62 -54.5138 1164.71 -44.5264 1164.67 -26.5983C1164.67 -7.81068 1164.67 10.977 1164.67 29.7647C1164.67 40.1613 1157.83 46.915 1148.3 46.342C1144.78 46.1988 1141.44 44.7618 1138.92 42.3068C1136.39 39.8517 1134.87 36.5514 1134.63 33.0392C1134.63 9.99464 1133.52 -13.1318 1135.08 -36.0945C1136.92 -63.9281 1161.76 -84.7214 1190.91 -84.8032C1240.49 -84.8032 1290.06 -84.8032 1339.61 -84.8032C1340.72 -84.8032 1341.82 -84.8032 1342.93 -84.8032C1346.33 -84.5388 1349.55 -83.1081 1352.02 -80.752C1354.5 -78.396 1356.08 -75.2587 1356.52 -71.8688C1357.02 -68.3319 1356.23 -64.7329 1354.3 -61.7277C1352.37 -58.7224 1349.42 -56.5109 1346 -55.4961C1343.53 -54.9077 1341 -54.6462 1338.47 -54.7184C1313.74 -54.4728 1289.1 -54.5138 1264.46 -54.5138Z" fill="#292929"/>
<path d="M1459.75 349.564C1440.35 349.564 1420.94 349.564 1401.5 349.564C1397.75 349.496 1394.16 348.004 1391.46 345.39C1388.76 342.776 1387.16 339.235 1386.97 335.484C1386.75 331.745 1387.94 328.058 1390.29 325.145C1392.64 322.231 1396 320.299 1399.7 319.725C1401.73 319.418 1403.79 319.294 1405.84 319.357H1511.89C1524.99 319.357 1534.65 312.357 1537.64 300.651C1538.31 297.573 1538.61 294.426 1538.54 291.277C1538.54 272.49 1538.54 253.702 1538.54 234.915C1538.22 231.153 1539.29 227.404 1541.55 224.383C1543.82 221.363 1547.12 219.283 1550.82 218.542C1552.96 218.104 1555.16 218.14 1557.28 218.648C1559.4 219.156 1561.39 220.124 1563.09 221.482C1564.8 222.841 1566.19 224.557 1567.16 226.51C1568.13 228.464 1568.66 230.606 1568.71 232.786C1568.99 238.926 1568.71 245.066 1568.71 251.246C1568.71 264.836 1568.71 278.384 1568.71 291.973C1568.71 325.742 1544.89 349.278 1511.4 349.523H1459.79L1459.75 349.564Z" fill="#292929"/>
<path d="M96.2386 86.3066C103.263 79.2712 108.789 70.8859 112.484 61.6565C116.179 52.427 117.966 42.5448 117.737 32.6059C117.509 22.6669 115.27 12.8772 111.154 3.82737C107.039 -5.22251 101.134 -13.345 93.7936 -20.0503C80.0418 -32.5053 62.0745 -39.2751 43.523 -38.9914C24.9715 -38.7078 7.21956 -31.3917 -6.14503 -18.5221C-13.1129 -11.709 -18.6605 -3.58177 -22.4666 5.38949C-26.2726 14.3607 -28.2614 23.9978 -28.3182 33.7428C-28.3751 43.4879 -26.4986 53.1475 -22.7975 62.1625C-19.0964 71.1776 -13.6442 79.3691 -6.75635 86.2631L-11.428 88.7953C-50.2859 111.237 -71.3739 144.593 -73.9062 189.564C-74.3786 196.657 -73.0634 203.756 -70.0808 210.209C-67.0983 216.662 -62.5439 222.264 -56.8351 226.501C-44.016 236.259 -29.044 242.802 -13.1746 245.58C30.185 255.654 75.4315 254.148 118.025 241.214C124.419 239.137 130.591 236.432 136.45 233.137C158.28 221.13 166.226 204.365 162.646 179.827C160.457 160.322 153.433 141.672 142.209 125.569C130.986 109.467 115.92 96.4211 98.3782 87.6165C97.5923 87.2672 96.9372 86.7432 96.2386 86.3066ZM43.3658 219.82C38.3885 219.602 31.8394 219.515 25.2903 218.991C7.8121 218.195 -9.40305 214.431 -25.6177 207.858C-41.3791 200.872 -43.0818 197.073 -40.5058 180.22C-37.1599 159.587 -26.4908 140.85 -10.4535 127.442C5.58372 114.035 25.9151 106.856 46.8152 107.22C92.2657 108.224 130.862 146.209 131.124 191.616C131.305 193.635 130.914 195.664 129.995 197.471C129.076 199.278 127.667 200.79 125.928 201.832C120.914 204.918 115.657 207.59 110.21 209.822C89.0783 217.681 67.1171 219.34 43.3658 219.82ZM44.8504 74.5621C39.4949 74.6553 34.1747 73.6765 29.2031 71.6833C24.2314 69.69 19.7088 66.7225 15.9011 62.9554C12.0933 59.1883 9.07721 54.6977 7.03067 49.7478C4.98412 44.7978 3.94849 39.4886 3.98424 34.1324C3.95529 28.7806 4.98798 23.4763 7.02267 18.5263C9.05736 13.5763 12.0536 9.07896 15.8379 5.29462C19.6223 1.51028 24.1196 -1.48593 29.0695 -3.52062C34.0195 -5.55531 39.3238 -6.58813 44.6756 -6.55919C50.0307 -6.58839 55.3384 -5.55219 60.2893 -3.51102C65.2403 -1.46986 69.7357 1.53551 73.5143 5.33033C77.2929 9.12515 80.279 13.6336 82.2989 18.5933C84.3188 23.553 85.3322 28.8647 85.28 34.2197C85.3091 39.533 84.2826 44.7992 82.26 49.7126C80.2374 54.626 77.259 59.0887 73.4978 62.8418C69.7366 66.5949 65.2675 69.5635 60.3498 71.5755C55.4321 73.5874 50.1636 74.6026 44.8504 74.5621Z" fill="#101010"/>
<path d="M323.012 258.765C329.994 251.623 335.464 243.145 339.092 233.839C342.72 224.533 344.432 214.59 344.127 204.606C343.821 194.623 341.503 184.803 337.312 175.737C333.122 166.67 327.144 158.542 319.737 151.841C306.234 140.051 288.902 133.58 270.976 133.637C253.051 133.693 235.759 140.273 222.331 152.147C215.012 158.764 209.096 166.784 204.934 175.729C200.771 184.675 198.445 194.365 198.095 204.226C197.745 214.086 199.377 223.917 202.895 233.135C206.413 242.353 211.745 250.772 218.576 257.892C207.958 265.318 197.755 273.319 188.013 281.862C166.261 302.769 153.592 331.384 152.736 361.542C152.204 369.307 153.757 377.072 157.234 384.035C160.712 390.997 165.987 396.904 172.514 401.142C186.62 410.763 202.73 417.049 219.624 419.523C259.71 427.714 301.172 426.218 340.563 415.157C347.96 412.986 355.115 410.06 361.913 406.425C384.66 394.288 392.825 377.609 389.157 352.243C386.899 332.843 379.855 314.308 368.66 298.304C357.465 282.301 342.469 269.329 325.02 260.556C324.43 260.227 323.862 259.863 323.317 259.464C323.204 259.39 323.115 259.284 323.061 259.16C323.007 259.036 322.989 258.899 323.012 258.765ZM271.274 392.454C262.193 391.886 253.111 391.668 244.074 390.708C228.081 389.598 212.426 385.573 197.881 378.832C185.219 372.457 183.822 369.707 185.612 355.779C185.612 355.43 185.612 355.081 185.612 354.775C187.065 343.323 190.806 332.28 196.61 322.302C202.415 312.324 210.166 303.615 219.403 296.691C228.64 289.768 239.174 284.771 250.38 281.999C261.586 279.226 273.235 278.734 284.634 280.552C304.674 283.755 322.949 293.902 336.262 309.219C349.575 324.536 357.079 344.046 357.46 364.337C357.625 366.191 357.272 368.055 356.439 369.721C355.607 371.386 354.327 372.787 352.744 373.767C347.171 377.149 341.33 380.07 335.28 382.499C314.645 389.345 293.014 392.709 271.274 392.454ZM312.053 206.548C312.082 211.919 311.048 217.243 309.011 222.213C306.974 227.184 303.974 231.702 300.184 235.508C296.394 239.315 291.888 242.334 286.927 244.392C281.965 246.45 276.646 247.507 271.274 247.501C260.542 247.467 250.259 243.194 242.662 235.614C235.065 228.034 230.771 217.759 230.714 207.028C230.668 201.667 231.68 196.351 233.693 191.382C235.706 186.414 238.679 181.892 242.443 178.075C246.207 174.258 250.688 171.222 255.628 169.14C260.568 167.058 265.87 165.972 271.23 165.943C281.993 165.978 292.305 170.265 299.919 177.871C307.534 185.478 311.832 195.785 311.878 206.548H312.053Z" fill="#101010"/>
<path d="M250.841 -6.6024H327.639C346.675 -6.6024 357.241 4.05079 357.285 23.1741C357.285 43.2142 357.285 63.2545 357.285 83.2947C357.285 94.3844 364.576 101.588 374.749 100.977C378.501 100.824 382.065 99.2916 384.756 96.6729C387.447 94.0541 389.077 90.5339 389.332 86.7875C389.332 62.2066 390.511 37.5384 388.851 13.0448C386.887 -16.6443 360.385 -38.8238 329.298 -38.9111C276.411 -38.9111 223.538 -38.9111 170.68 -38.9111C169.501 -38.9111 168.322 -38.9111 167.144 -38.9111C163.509 -38.6291 160.083 -37.103 157.443 -34.5899C154.802 -32.0767 153.109 -28.7303 152.648 -25.1144C152.114 -21.3417 152.954 -17.5028 155.013 -14.2972C157.073 -11.0916 160.216 -8.73267 163.869 -7.65021C166.499 -7.02256 169.2 -6.74364 171.902 -6.82065C198.273 -6.55869 224.557 -6.6024 250.841 -6.6024Z" fill="#101010"/>
</g>
<defs>
<clipPath id="clip0_75_4688">
<rect width="1440" height="266" fill="white"/>
</clipPath>
</defs>
</svg>
