<svg width="91" height="55" viewBox="0 0 91 55" fill="none" xmlns="http://www.w3.org/2000/svg">
<path d="M28.6641 20.3099C29.0555 18.8058 29.1467 17.2393 28.9325 15.6999C28.7183 14.1605 28.2029 12.6784 27.4158 11.3383C26.6287 9.99812 25.5853 8.82618 24.3451 7.88939C23.105 6.9526 21.6924 6.26932 20.1881 5.87858C18.6787 5.508 17.1111 5.43842 15.5749 5.67382C14.0386 5.90923 12.5637 6.445 11.2346 7.25053C9.90542 8.05606 8.74799 9.11557 7.82839 10.3685C6.9088 11.6215 6.24507 13.0433 5.87512 14.5529C5.48826 16.0803 5.40818 17.6693 5.63951 19.2279C5.87083 20.7865 6.40897 22.2837 7.2228 23.633C7.89544 24.7542 8.45038 25.4224 8.85724 26.6768C9.12079 27.7633 9.14575 28.8939 8.93041 29.9909L7.86894 34.1927L17.6546 36.6648L18.6977 32.5357C18.6977 32.5357 19.5361 30.2258 20.1777 29.614C20.9127 28.9479 21.7468 28.4 22.65 27.99C24.1375 27.2065 25.4424 26.1172 26.479 24.7935C27.5155 23.4699 28.2602 21.9419 28.6641 20.3099Z" fill="#FFB34C"/>
<path d="M12.2359 31.2128C12.1922 31.2034 12.153 31.1796 12.1245 31.1452C12.096 31.1107 12.08 31.0677 12.079 31.023C12.4862 26.7904 12.5067 22.5295 12.1404 18.2932C12.0716 17.5384 12.2055 17.0806 12.5388 16.8963C12.9622 16.6619 13.5448 16.9501 13.965 17.161C14.0792 17.2265 14.1999 17.2799 14.3253 17.3203C14.428 17.3462 14.6178 17.2075 14.7818 17.0988C14.9419 16.9583 15.1309 16.8548 15.3355 16.7956C15.54 16.7363 15.7551 16.7228 15.9654 16.756C16.155 16.8247 16.3263 16.9358 16.4664 17.0809C16.6064 17.2259 16.7115 17.401 16.7736 17.5928C16.8738 17.7911 16.9653 17.9872 17.0937 18.0196C17.1429 18.0295 17.1863 18.058 17.2149 18.0992C17.2436 18.1403 17.2552 18.191 17.2473 18.2405C17.2401 18.2644 17.2282 18.2866 17.2124 18.306C17.1966 18.3253 17.1771 18.3413 17.1551 18.353C17.1331 18.3648 17.109 18.3721 17.0842 18.3746C17.0594 18.377 17.0343 18.3746 17.0104 18.3673C16.8635 18.3145 16.7311 18.228 16.6237 18.1147C16.5164 18.0014 16.4371 17.8645 16.3923 17.715C16.2613 17.4407 16.1324 17.1942 15.8586 17.125C15.559 17.0493 15.2888 17.236 15.0208 17.414C14.8142 17.5872 14.5533 17.6824 14.2837 17.683C14.1035 17.6414 13.9305 17.5731 13.7704 17.4805C13.439 17.3149 12.9826 17.0858 12.7478 17.2222C12.6374 17.2808 12.4624 17.5051 12.5311 18.2963C12.903 22.5417 12.8832 26.8122 12.4718 31.0539C12.47 31.079 12.4629 31.1035 12.4511 31.1257C12.4393 31.1479 12.423 31.1675 12.4032 31.183C12.3834 31.1986 12.3606 31.2099 12.3362 31.2161C12.3118 31.2224 12.2864 31.2234 12.2616 31.2193L12.2359 31.2128Z" fill="#4F5054"/>
<path d="M15.1102 31.9435L15.0631 31.9316C15.0403 31.922 15.0196 31.9079 15.0023 31.8901C14.985 31.8724 14.9715 31.8514 14.9624 31.8283C14.9534 31.8052 14.9491 31.7806 14.9498 31.7558C14.9504 31.731 14.9561 31.7067 14.9663 31.6841C16.6484 27.7749 18.6706 24.0209 21.0095 20.4655C21.4457 19.8018 21.3939 19.5202 21.3246 19.4162C21.1807 19.1932 20.6744 19.1791 20.302 19.1579C20.1156 19.163 19.9296 19.1406 19.7498 19.0912C19.5153 18.9631 19.3337 18.7559 19.2375 18.5066C19.0862 18.2226 18.9285 17.9278 18.6375 17.8543C18.3637 17.7852 18.1278 17.9623 17.8834 18.119C17.7735 18.2302 17.6388 18.3136 17.4903 18.3624C17.3419 18.4111 17.1839 18.4239 17.0296 18.3995C17.0051 18.3945 16.9819 18.3848 16.9612 18.3708C16.9405 18.3569 16.9227 18.339 16.909 18.3182C16.8952 18.2974 16.8857 18.274 16.881 18.2495C16.8762 18.225 16.8763 18.1998 16.8813 18.1754C16.8892 18.1512 16.9017 18.1289 16.9184 18.1097C16.935 18.0904 16.9553 18.0748 16.9781 18.0635C17.0008 18.0523 17.0257 18.0458 17.051 18.0443C17.0764 18.0429 17.1018 18.0465 17.1257 18.055C17.2541 18.0875 17.4278 17.9584 17.6154 17.8283C17.7609 17.6903 17.9357 17.5871 18.1269 17.5266C18.318 17.4661 18.5204 17.4497 18.7187 17.4788C18.9196 17.5496 19.1025 17.6636 19.2543 17.8129C19.4062 17.9622 19.5234 18.143 19.5975 18.3426C19.6859 18.5152 19.7904 18.7145 19.8898 18.7533C20.0192 18.778 20.1509 18.7884 20.2826 18.7843C20.7556 18.8036 21.401 18.8256 21.6676 19.2297C21.8734 19.5503 21.7695 20.0156 21.3548 20.6483C19.0238 24.2068 17.0089 27.9624 15.333 31.8723C15.3077 31.9057 15.2727 31.9305 15.2329 31.9432C15.193 31.956 15.1501 31.9561 15.1102 31.9435Z" fill="#4F5054"/>
<path d="M17.643 36.5481C16.961 39.248 12.8422 40.5426 11.5158 40.2075C10.1466 39.8616 7.17532 36.7759 7.85739 34.076L8.91345 29.8956L18.6991 32.3676L17.643 36.5481Z" fill="#006F8A"/>
<path d="M12.7486 40.3187C12.6546 40.6909 12.4345 40.9494 12.2462 40.9018L10.5347 40.4695C10.3464 40.4219 10.2755 40.0899 10.3696 39.7177C10.4625 39.3497 10.6837 39.0869 10.872 39.1345L12.5835 39.5669C12.7718 39.6144 12.8416 39.9507 12.7486 40.3187Z" fill="#006F8A"/>
<path d="M18.4171 33.4662C18.4077 33.5206 18.3874 33.5724 18.3575 33.6188C18.3276 33.6651 18.2887 33.705 18.2431 33.7359C18.1974 33.7669 18.146 33.7883 18.0919 33.799C18.0378 33.8096 17.9821 33.8093 17.9282 33.7979L8.83456 31.9558C8.7805 31.9459 8.72896 31.9253 8.68293 31.8952C8.63691 31.8652 8.59732 31.8263 8.56646 31.7808C8.5356 31.7353 8.51408 31.6841 8.50317 31.6302C8.49225 31.5764 8.49216 31.5208 8.50288 31.4669C8.51285 31.4129 8.53346 31.3613 8.56351 31.3153C8.59357 31.2693 8.63248 31.2297 8.67797 31.1988C8.72345 31.168 8.77461 31.1465 8.82849 31.1355C8.88237 31.1246 8.93788 31.1245 8.9918 31.1353L18.0854 32.9773C18.1397 32.9867 18.1916 33.007 18.238 33.0369C18.2843 33.0668 18.3241 33.1057 18.3551 33.1513C18.386 33.197 18.4075 33.2484 18.4181 33.3025C18.4288 33.3566 18.4284 33.4123 18.4171 33.4662Z" fill="#46B2D8"/>
<path d="M18.0495 34.921C18.0401 34.9753 18.0199 35.0272 17.99 35.0736C17.9601 35.1199 17.9212 35.1597 17.8755 35.1907C17.8299 35.2216 17.7785 35.2431 17.7244 35.2537C17.6703 35.2644 17.6146 35.264 17.5606 35.2527L8.46701 33.4106C8.41267 33.4012 8.36079 33.381 8.31445 33.3511C8.26812 33.3212 8.22829 33.2822 8.19733 33.2366C8.16637 33.191 8.14492 33.1396 8.13427 33.0855C8.12362 33.0314 8.12398 32.9757 8.13533 32.9217C8.14529 32.8676 8.1659 32.8161 8.19596 32.7701C8.22601 32.7241 8.26492 32.6845 8.31041 32.6536C8.3559 32.6227 8.40706 32.6012 8.46094 32.5903C8.51481 32.5794 8.57033 32.5793 8.62424 32.59L17.7179 34.4321C17.7722 34.4415 17.8241 34.4617 17.8704 34.4916C17.9167 34.5215 17.9566 34.5605 17.9875 34.6061C18.0185 34.6517 18.0399 34.7031 18.0506 34.7572C18.0612 34.8113 18.0609 34.867 18.0495 34.921Z" fill="#46B2D8"/>
<path d="M17.6788 36.3887C17.6694 36.443 17.6491 36.4949 17.6193 36.5412C17.5894 36.5875 17.5504 36.6274 17.5048 36.6583C17.4592 36.6893 17.4078 36.7107 17.3537 36.7214C17.2996 36.732 17.2439 36.7317 17.1899 36.7203L8.09628 34.8783C8.04222 34.8683 7.99068 34.8477 7.94465 34.8176C7.89863 34.7876 7.85904 34.7487 7.82818 34.7032C7.79732 34.6577 7.7758 34.6065 7.76489 34.5527C7.75397 34.4988 7.75388 34.4433 7.7646 34.3894C7.77457 34.3353 7.79517 34.2838 7.82523 34.2377C7.85529 34.1917 7.89419 34.1521 7.93968 34.1213C7.98517 34.0904 8.03633 34.0689 8.09021 34.058C8.14408 34.047 8.1996 34.047 8.25352 34.0577L17.3471 35.8997C17.4015 35.9091 17.4533 35.9294 17.4997 35.9593C17.546 35.9892 17.5859 36.0281 17.6168 36.0737C17.6478 36.1194 17.6692 36.1708 17.6799 36.2249C17.6905 36.279 17.6902 36.3347 17.6788 36.3887Z" fill="#46B2D8"/>
<path d="M26.4721 17.1592C27.7342 16.4061 27.6286 13.9037 26.2361 11.5699C24.8436 9.23609 22.6916 7.95463 21.4295 8.70769C20.1673 9.46075 20.273 11.9632 21.6655 14.297C23.0579 16.6308 25.2099 17.9123 26.4721 17.1592Z" fill="#FFC966"/>
<path d="M68.817 28.0343C68.9067 28.0878 69.0062 28.1227 69.1097 28.1369C69.2131 28.151 69.3184 28.1442 69.4191 28.1168C69.5199 28.0894 69.6141 28.042 69.6961 27.9774C69.7781 27.9127 69.8462 27.8323 69.8965 27.7407C69.9512 27.6514 69.9871 27.5518 70.0019 27.4481C70.0167 27.3444 70.0102 27.2387 69.9827 27.1376C69.9552 27.0366 69.9073 26.9422 69.842 26.8602C69.7767 26.7783 69.6953 26.7106 69.6029 26.6613C69.4201 26.5603 69.2051 26.5344 69.0036 26.5893C68.8021 26.6441 68.6299 26.7752 68.5234 26.9549C68.4246 27.1382 68.4 27.3524 68.4546 27.5533C68.5093 27.7542 68.639 27.9264 68.817 28.0343Z" fill="#262626"/>
<path d="M66.1487 31.9376C66.2317 32.0024 66.3268 32.0501 66.4285 32.0779C66.5301 32.1056 66.6363 32.1129 66.7407 32.0992C66.8452 32.0856 66.9459 32.0513 67.037 31.9983C67.1281 31.9453 67.2077 31.8748 67.2713 31.7908C67.3358 31.7073 67.3826 31.6116 67.4088 31.5095C67.4351 31.4073 67.4403 31.3009 67.4242 31.1967C67.408 31.0925 67.3708 30.9926 67.3149 30.9033C67.2589 30.8139 67.1853 30.7368 67.0986 30.6768C66.9298 30.5579 66.7216 30.5086 66.5174 30.5392C66.3131 30.5697 66.1285 30.6778 66.0019 30.8409C65.879 31.0069 65.8256 31.2142 65.853 31.419C65.8804 31.6237 65.9865 31.8097 66.1487 31.9376Z" fill="#262626"/>
<path d="M62.9968 35.4781C63.1472 35.6274 63.3505 35.7111 63.5624 35.7111C63.7743 35.7111 63.9776 35.6274 64.128 35.4781C64.2049 35.4062 64.2662 35.3193 64.3081 35.2228C64.35 35.1262 64.3716 35.0221 64.3716 34.9168C64.3716 34.8116 64.35 34.7075 64.3081 34.6109C64.2662 34.5143 64.2049 34.4274 64.128 34.3555C63.9774 34.2134 63.7781 34.1343 63.571 34.1343C63.3639 34.1343 63.1647 34.2134 63.014 34.3555C62.9372 34.4269 62.8755 34.5131 62.8328 34.6089C62.7902 34.7048 62.7673 34.8083 62.7657 34.9132C62.7641 35.018 62.7837 35.1222 62.8235 35.2193C62.8632 35.3164 62.9221 35.4044 62.9968 35.4781Z" fill="#262626"/>
<path d="M59.3784 38.5438C59.5134 38.7057 59.7029 38.8126 59.9113 38.8444C60.1197 38.8762 60.3325 38.8307 60.5096 38.7165C60.5936 38.6516 60.6637 38.5705 60.7159 38.4781C60.768 38.3856 60.8011 38.2837 60.8132 38.1782C60.8253 38.0727 60.8161 37.966 60.7862 37.8641C60.7563 37.7623 60.7063 37.6674 60.6392 37.5852C60.5089 37.425 60.3208 37.3226 60.1156 37.2999C59.9104 37.2773 59.7045 37.3364 59.5425 37.4643C59.4604 37.5241 59.3911 37.5996 59.3384 37.6864C59.2857 37.7731 59.2507 37.8695 59.2354 37.9699C59.2202 38.0702 59.2249 38.1726 59.2495 38.2711C59.274 38.3696 59.3178 38.4623 59.3784 38.5438Z" fill="#262626"/>
<path d="M55.337 41.0308C55.3831 41.1251 55.4483 41.2088 55.5284 41.2767C55.6085 41.3446 55.7018 41.3951 55.8024 41.4252C55.903 41.4552 56.0087 41.464 56.1129 41.4511C56.2171 41.4382 56.3175 41.4039 56.4078 41.3503C56.5013 41.2998 56.5838 41.2311 56.6503 41.1482C56.7169 41.0653 56.7661 40.9699 56.7951 40.8677C56.8241 40.7654 56.8322 40.6584 56.8191 40.5529C56.806 40.4474 56.7718 40.3456 56.7186 40.2536C56.617 40.0759 56.45 39.9449 56.2533 39.8885C56.0565 39.832 55.8455 39.8546 55.6651 39.9513C55.4901 40.062 55.3606 40.2319 55.3004 40.4301C55.2402 40.6282 55.2531 40.8414 55.337 41.0308Z" fill="#262626"/>
<path d="M50.9243 42.7492C50.9556 42.8491 51.0065 42.9418 51.0741 43.0217C51.1417 43.1017 51.2246 43.1673 51.3179 43.2148C51.4112 43.2622 51.5131 43.2906 51.6175 43.2981C51.7219 43.3057 51.8268 43.2923 51.926 43.2587C52.0263 43.2295 52.1195 43.18 52.2 43.1135C52.2806 43.047 52.3467 42.9647 52.3944 42.8718C52.4421 42.7789 52.4703 42.6772 52.4774 42.573C52.4844 42.4687 52.4702 42.3642 52.4355 42.2656C52.3566 42.0733 52.211 41.916 52.0254 41.8224C51.8398 41.7288 51.6267 41.7053 51.4251 41.7562C51.2296 41.825 51.0683 41.9669 50.975 42.152C50.8816 42.337 50.8634 42.5511 50.9243 42.7492Z" fill="#262626"/>
<path d="M46.287 43.7337C46.2976 43.8354 46.3286 43.9339 46.3782 44.0233C46.4277 44.1128 46.4949 44.1913 46.5755 44.2542C46.6561 44.3171 46.7486 44.3631 46.8474 44.3894C46.9462 44.4157 47.0493 44.4217 47.1506 44.4072C47.3622 44.3713 47.551 44.253 47.6756 44.0782C47.8002 43.9034 47.8505 43.6864 47.8155 43.4746C47.7815 43.278 47.6725 43.1023 47.5113 42.9847C47.3502 42.867 47.1496 42.8166 46.952 42.8442C46.7542 42.8906 46.5792 43.0052 46.4575 43.1679C46.3359 43.3306 46.2756 43.5309 46.287 43.7337Z" fill="#262626"/>
<path d="M41.5547 43.7337C41.5414 43.8395 41.5503 43.9468 41.5808 44.049C41.6113 44.1511 41.6627 44.2458 41.7317 44.327C41.8007 44.4082 41.8859 44.4742 41.9818 44.5207C42.0777 44.5672 42.1822 44.5933 42.2887 44.5973C42.3951 44.6106 42.5032 44.6014 42.6059 44.5704C42.7086 44.5394 42.8037 44.4873 42.8851 44.4173C42.9664 44.3474 43.0322 44.2612 43.0782 44.1642C43.1242 44.0673 43.1494 43.9619 43.1522 43.8546C43.169 43.6429 43.1011 43.4331 42.9635 43.2713C42.826 43.1094 42.6299 43.0087 42.4182 42.991C42.2056 42.9767 41.9959 43.0466 41.8343 43.1855C41.6728 43.3244 41.5723 43.5213 41.5547 43.7337Z" fill="#262626"/>
<path d="M36.9088 42.7924C36.876 42.8939 36.8645 43.001 36.8749 43.107C36.8853 43.2131 36.9175 43.3159 36.9693 43.4091C37.0211 43.5022 37.0916 43.5837 37.1762 43.6485C37.2609 43.7132 37.358 43.7599 37.4615 43.7855C37.5624 43.8139 37.6681 43.8216 37.7721 43.8081C37.8761 43.7947 37.9763 43.7602 38.0667 43.707C38.1571 43.6537 38.2357 43.5827 38.2979 43.4983C38.3601 43.4138 38.4046 43.3177 38.4286 43.2156C38.477 43.0154 38.4466 42.8043 38.3437 42.6259C38.2408 42.4475 38.0734 42.3155 37.876 42.257C37.6768 42.2054 37.4655 42.2322 37.2856 42.3318C37.1056 42.4314 36.9708 42.5963 36.9088 42.7924Z" fill="#262626"/>
<path d="M32.6688 40.7285C32.6031 40.8146 32.5562 40.9135 32.5309 41.0188C32.5057 41.1241 32.5027 41.2335 32.5222 41.34C32.5418 41.4465 32.5833 41.5478 32.6442 41.6373C32.7052 41.7268 32.7841 41.8026 32.8761 41.8598C32.9662 41.9175 33.067 41.9564 33.1725 41.9741C33.278 41.9919 33.386 41.9882 33.4901 41.9632C33.5941 41.9382 33.692 41.8924 33.7779 41.8287C33.8638 41.7649 33.936 41.6844 33.99 41.5921C34.0923 41.4152 34.1234 41.206 34.0769 41.0071C34.0303 40.8082 33.9097 40.6344 33.7396 40.5213C33.5673 40.4167 33.3622 40.38 33.1642 40.4183C32.9663 40.4566 32.7897 40.5672 32.6688 40.7285Z" fill="#262626"/>
<path d="M30.3113 36.7476C30.2037 36.7655 30.1013 36.8067 30.0112 36.8682C29.9212 36.9297 29.8455 37.0101 29.7897 37.1038C29.7338 37.1975 29.699 37.3022 29.6877 37.4107C29.6763 37.5192 29.6888 37.6288 29.7241 37.732C29.7488 37.8385 29.7961 37.9383 29.8629 38.0248C29.9296 38.1113 30.0142 38.1824 30.111 38.2332C30.2077 38.284 30.3142 38.3133 30.4233 38.3193C30.5324 38.3252 30.6415 38.3075 30.7431 38.2674C30.925 38.1883 31.074 38.0489 31.1652 37.8728C31.2564 37.6966 31.2843 37.4945 31.244 37.3002C31.175 37.1155 31.0449 36.9599 30.8752 36.8593C30.7055 36.7588 30.5065 36.7193 30.3113 36.7476Z" fill="#262626"/>
<path d="M31.4339 32.283C31.3461 32.2164 31.2448 32.1697 31.1372 32.1461C31.0295 32.1225 30.9179 32.1227 30.8103 32.1465C30.7027 32.1703 30.6015 32.2173 30.5139 32.2841C30.4262 32.3509 30.3541 32.436 30.3026 32.5335C30.2416 32.6245 30.2012 32.7279 30.1843 32.8362C30.1674 32.9445 30.1744 33.0553 30.2048 33.1606C30.2353 33.2659 30.2884 33.3633 30.3605 33.4459C30.4326 33.5286 30.5219 33.5944 30.6222 33.6388C30.8035 33.7137 31.005 33.7245 31.1933 33.6696C31.3817 33.6146 31.5457 33.4972 31.6584 33.3366C31.7459 33.1615 31.7714 32.9619 31.7306 32.7705C31.6898 32.5791 31.5852 32.4072 31.4339 32.283Z" fill="#262626"/>
<path d="M35.3889 29.8133C35.3593 29.7096 35.3081 29.6133 35.2388 29.5307C35.1696 29.4481 35.0837 29.381 34.9867 29.3338C34.8898 29.2866 34.7841 29.2602 34.6763 29.2566C34.5686 29.2529 34.4612 29.2719 34.3613 29.3124C34.2585 29.3452 34.1639 29.3996 34.0837 29.4718C34.0035 29.5441 33.9397 29.6326 33.8964 29.7314C33.8531 29.8303 33.8313 29.9372 33.8326 30.0451C33.8338 30.1531 33.858 30.2595 33.9036 30.3573C33.994 30.5351 34.1432 30.6761 34.3258 30.7564C34.5084 30.8367 34.7132 30.8513 34.9053 30.7977C35.0875 30.715 35.2353 30.5717 35.3235 30.3921C35.4117 30.2126 35.4348 30.008 35.3889 29.8133Z" fill="#262626"/>
<path d="M40.0781 29.7615C40.1032 29.6572 40.106 29.5488 40.0863 29.4434C40.0665 29.338 40.0247 29.2379 39.9635 29.1498C39.9023 29.0617 39.8232 28.9876 39.7313 28.9323C39.6394 28.8769 39.5369 28.8417 39.4304 28.8288C39.3247 28.8077 39.2157 28.8094 39.1106 28.8336C39.0056 28.8579 38.9069 28.9042 38.8211 28.9696C38.7353 29.0349 38.6645 29.1178 38.6132 29.2126C38.5619 29.3075 38.5314 29.4121 38.5237 29.5197C38.5179 29.7169 38.5799 29.9102 38.6993 30.0673C38.8188 30.2245 38.9884 30.3359 39.18 30.3832C39.3784 30.399 39.5762 30.3457 39.7398 30.2324C39.9035 30.1191 40.023 29.9527 40.0781 29.7615Z" fill="#262626"/>
<path d="M44.2059 31.998C44.2794 31.919 44.3355 31.8253 44.3704 31.7231C44.4054 31.6209 44.4184 31.5125 44.4086 31.4049C44.3988 31.2974 44.3665 31.1931 44.3137 31.0989C44.2609 31.0047 44.1889 30.9226 44.1023 30.8581C44.0194 30.7891 43.923 30.7384 43.8193 30.7091C43.7155 30.6798 43.6068 30.6726 43.5001 30.6881C43.3934 30.7036 43.2911 30.7413 43.2 30.7989C43.1089 30.8564 43.0308 30.9325 42.971 31.0222C42.8678 31.1916 42.826 31.3914 42.8527 31.588C42.8795 31.7846 42.9731 31.966 43.1178 32.1017C43.2795 32.223 43.4807 32.2796 43.6819 32.2604C43.8831 32.2412 44.07 32.1477 44.2059 31.998Z" fill="#262626"/>
<path d="M46.451 36.0913C46.5575 36.0699 46.6582 36.0261 46.7465 35.9629C46.8348 35.8998 46.9088 35.8186 46.9634 35.7247C47.0181 35.6309 47.0523 35.5266 47.0637 35.4186C47.0751 35.3106 47.0635 35.2014 47.0296 35.0982C47.0029 34.9922 46.9538 34.8932 46.8858 34.8077C46.8178 34.7222 46.7323 34.6521 46.635 34.6023C46.5377 34.5524 46.431 34.5239 46.3218 34.5186C46.2127 34.5133 46.1036 34.5313 46.002 34.5714C45.8184 34.6509 45.6681 34.7916 45.5767 34.9696C45.4854 35.1476 45.4587 35.3518 45.5011 35.5473C45.5722 35.7337 45.7057 35.8898 45.8789 35.989C46.052 36.0882 46.2542 36.1243 46.451 36.0913Z" fill="#262626"/>
<path d="M46.1661 40.789C46.2694 40.8143 46.3768 40.8184 46.4817 40.801C46.5867 40.7836 46.687 40.7451 46.7767 40.6878C46.8663 40.6304 46.9433 40.5555 47.0031 40.4675C47.0629 40.3795 47.1043 40.2803 47.1246 40.1759C47.1484 40.0724 47.1508 39.9652 47.1316 39.8608C47.1124 39.7564 47.0721 39.6571 47.013 39.5689C46.9539 39.4807 46.8774 39.4055 46.7882 39.348C46.699 39.2906 46.5989 39.2519 46.4942 39.2346C46.293 39.2147 46.0911 39.266 45.9238 39.3796C45.7566 39.4932 45.6345 39.662 45.5788 39.8564C45.5393 40.0574 45.5781 40.2659 45.6872 40.4393C45.7964 40.6127 45.9677 40.7378 46.1661 40.789Z" fill="#262626"/>
<path d="M44.3008 45.1327C44.3919 45.1869 44.4931 45.2219 44.5982 45.2356C44.7033 45.2493 44.8101 45.2413 44.912 45.2122C45.0139 45.1831 45.1088 45.1334 45.1908 45.0663C45.2728 44.9991 45.3402 44.9159 45.3889 44.8218C45.4392 44.7287 45.4703 44.6264 45.4801 44.521C45.4899 44.4156 45.4784 44.3093 45.4461 44.2085C45.4138 44.1077 45.3615 44.0144 45.2924 43.9343C45.2232 43.8542 45.1385 43.7889 45.0435 43.7423C44.8592 43.6521 44.6473 43.6358 44.4514 43.6968C44.2555 43.7579 44.0904 43.8916 43.9899 44.0705C43.8957 44.2536 43.8754 44.466 43.9332 44.6637C43.9911 44.8614 44.1227 45.0293 44.3008 45.1327Z" fill="#262626"/>
<path d="M41.4943 48.9582C41.5733 49.0289 41.6657 49.0829 41.7661 49.1169C41.8664 49.151 41.9727 49.1644 42.0784 49.1563C42.184 49.1483 42.287 49.1189 42.381 49.07C42.4751 49.0211 42.5582 48.9537 42.6256 48.8718C42.6939 48.792 42.7455 48.6992 42.7774 48.599C42.8093 48.4988 42.8207 48.3933 42.811 48.2886C42.8014 48.1839 42.7708 48.0823 42.7212 47.9896C42.6715 47.897 42.6038 47.8152 42.5219 47.7492C42.3598 47.6208 42.1544 47.56 41.9485 47.5793C41.7426 47.5986 41.5521 47.6966 41.4166 47.8528C41.2851 48.0118 41.2198 48.2153 41.2343 48.4211C41.2487 48.6269 41.3419 48.8192 41.4943 48.9582Z" fill="#262626"/>
<path d="M37.8846 52.0152C37.9405 52.1072 38.0148 52.1866 38.1029 52.2484C38.1911 52.3101 38.2911 52.3529 38.3966 52.374C38.5021 52.3951 38.6109 52.3941 38.716 52.371C38.8211 52.3478 38.9203 52.3031 39.0072 52.2397C39.0949 52.1795 39.1694 52.1022 39.2263 52.0124C39.2832 51.9226 39.3212 51.8221 39.3382 51.7172C39.3551 51.6122 39.3506 51.505 39.3249 51.4018C39.2992 51.2986 39.2528 51.2018 39.1886 51.1171C39.0647 50.9536 38.8829 50.8438 38.6806 50.81C38.4783 50.7763 38.2707 50.8213 38.1005 50.9357C37.9446 51.0624 37.8377 51.2396 37.7983 51.4366C37.7589 51.6336 37.7894 51.8382 37.8846 52.0152Z" fill="#262626"/>
<path d="M33.4115 53.3364C33.4241 53.4363 33.4567 53.5326 33.5073 53.6197C33.5579 53.7067 33.6255 53.7827 33.706 53.8432C33.7866 53.9036 33.8785 53.9472 33.9762 53.9714C34.074 53.9956 34.1756 53.9999 34.275 53.9841C34.3788 53.9684 34.4785 53.9321 34.568 53.8773C34.6576 53.8224 34.7352 53.7502 34.7964 53.6649C34.8576 53.5796 34.901 53.4829 34.9242 53.3805C34.9474 53.2781 34.9498 53.172 34.9313 53.0687C34.8935 52.8727 34.7842 52.6979 34.6246 52.5781C34.4649 52.4584 34.2664 52.4024 34.0677 52.421C33.8669 52.4698 33.6902 52.589 33.5698 52.757C33.4494 52.9249 33.3932 53.1305 33.4115 53.3364Z" fill="#262626"/>
<path d="M28.6446 53.3364C28.6314 53.4407 28.6398 53.5467 28.6692 53.6477C28.6987 53.7487 28.7485 53.8426 28.8157 53.9236C28.8829 54.0045 28.966 54.0708 29.0599 54.1184C29.1537 54.1659 29.2563 54.1936 29.3614 54.1999C29.4659 54.2187 29.5732 54.2145 29.6759 54.1878C29.7787 54.1611 29.8744 54.1123 29.9565 54.045C30.0386 53.9777 30.1051 53.8934 30.1514 53.7979C30.1978 53.7024 30.2228 53.5979 30.2249 53.4918C30.2276 53.2848 30.1558 53.0838 30.0227 52.9253C29.8895 52.7668 29.7039 52.6614 29.4995 52.6282C29.2928 52.6113 29.0876 52.6759 28.9279 52.8082C28.7681 52.9405 28.6665 53.1301 28.6446 53.3364Z" fill="#262626"/>
<path d="M24.0765 52.1274C24.0365 52.2247 24.0166 52.3291 24.0181 52.4342C24.0197 52.5394 24.0425 52.6431 24.0853 52.7392C24.1281 52.8353 24.1899 52.9217 24.2671 52.9932C24.3442 53.0646 24.4351 53.1197 24.5342 53.155C24.6305 53.1976 24.7347 53.2194 24.8401 53.2191C24.9454 53.2188 25.0495 53.1963 25.1456 53.1532C25.2417 53.11 25.3276 53.0471 25.3978 52.9686C25.4681 52.8901 25.521 52.7977 25.5531 52.6974C25.611 52.4976 25.5948 52.2836 25.5076 52.0949C25.4203 51.9061 25.2678 51.7551 25.0782 51.6697C24.8846 51.5995 24.6711 51.6081 24.4837 51.6937C24.2964 51.7793 24.1502 51.9351 24.0765 52.1274Z" fill="#262626"/>
<path d="M19.9746 49.7613C19.9112 49.8451 19.8656 49.9411 19.8408 50.0432C19.8159 50.1454 19.8123 50.2515 19.8301 50.3551C19.8479 50.4587 19.8867 50.5576 19.9443 50.6456C20.0018 50.7335 20.0768 50.8088 20.1646 50.8666C20.2479 50.9313 20.3438 50.9779 20.4462 51.0035C20.5485 51.029 20.6551 51.033 20.7591 51.0151C20.8631 50.9973 20.9622 50.9579 21.0501 50.8997C21.1381 50.8414 21.2129 50.7654 21.2699 50.6766C21.374 50.499 21.4112 50.29 21.3748 50.0873C21.3384 49.8846 21.2307 49.7016 21.0713 49.5713C20.8987 49.4573 20.6891 49.4134 20.4852 49.4487C20.2814 49.484 20.0987 49.5958 19.9746 49.7613Z" fill="#262626"/>
<path d="M16.529 46.5143C16.4523 46.5855 16.3912 46.6716 16.3494 46.7675C16.3076 46.8633 16.286 46.9668 16.286 47.0713C16.286 47.1759 16.3076 47.2793 16.3494 47.3751C16.3912 47.471 16.4523 47.5572 16.529 47.6283C16.6021 47.703 16.6895 47.7623 16.7859 47.8028C16.8822 47.8433 16.9857 47.8642 17.0903 47.8642C17.1948 47.8642 17.2983 47.8433 17.3947 47.8028C17.4911 47.7623 17.5784 47.703 17.6516 47.6283C17.7997 47.4832 17.8866 47.287 17.8947 47.0799C17.9027 46.8728 17.8312 46.6704 17.6948 46.5143C17.5356 46.3687 17.3276 46.2879 17.1119 46.2879C16.8961 46.2879 16.6882 46.3687 16.529 46.5143Z" fill="#262626"/>
<path d="M13.7916 42.6456C13.6998 42.698 13.6197 42.7685 13.5561 42.8529C13.4925 42.9373 13.4468 43.0337 13.4217 43.1364C13.3967 43.239 13.3928 43.3457 13.4103 43.4499C13.4279 43.5541 13.4665 43.6536 13.5239 43.7424C13.5801 43.8314 13.6534 43.9084 13.7396 43.9688C13.8258 44.0293 13.9231 44.072 14.026 44.0945C14.1288 44.117 14.2351 44.1188 14.3387 44.0999C14.4422 44.0809 14.541 44.0416 14.6292 43.9841C14.8022 43.871 14.9237 43.6943 14.9674 43.4923C15.011 43.2902 14.9733 43.0791 14.8624 42.9047C14.7535 42.7298 14.5803 42.6046 14.38 42.5561C14.1797 42.5077 13.9684 42.5398 13.7916 42.6456Z" fill="#262626"/>
<path d="M11.7277 38.371C11.6298 38.409 11.5406 38.4662 11.4652 38.5392C11.3898 38.6123 11.3299 38.6997 11.2888 38.7962C11.2478 38.8928 11.2265 38.9967 11.2262 39.1016C11.2259 39.2066 11.2467 39.3105 11.2872 39.4073C11.324 39.5059 11.3807 39.5959 11.4537 39.6717C11.5267 39.7475 11.6145 39.8075 11.7117 39.848C11.8089 39.8885 11.9133 39.9086 12.0185 39.9071C12.1238 39.9055 12.2276 39.8824 12.3235 39.8391C12.5072 39.7461 12.6516 39.5907 12.7308 39.4007C12.8099 39.2107 12.8186 38.9987 12.7553 38.8028C12.6715 38.6133 12.5184 38.4629 12.3273 38.3827C12.1362 38.3024 11.9217 38.2982 11.7277 38.371Z" fill="#262626"/>
<path d="M69.3494 34.3429L85.8597 10.4414C86.1295 10.0508 86.0316 9.51538 85.641 9.24555L80.6828 5.82063C80.2921 5.55079 79.7567 5.64872 79.4869 6.03936L62.9767 29.9408C62.7068 30.3314 62.8047 30.8669 63.1954 31.1367L68.1535 34.5616C68.5442 34.8315 69.0796 34.7335 69.3494 34.3429Z" fill="#DBCFCF"/>
<path d="M82.4546 14.6699L85.5312 10.2159L79.8097 6.26374L76.7331 10.7177L82.4546 14.6699Z" fill="#FB6459"/>
<path d="M79.3772 19.126L82.4539 14.6721L76.7324 10.7199L73.6557 15.1738L79.3772 19.126Z" fill="#F05246"/>
<path d="M76.298 23.5794L79.3746 19.1254L73.6531 15.1732L70.5765 19.6272L76.298 23.5794Z" fill="#E74337"/>
<path d="M73.2196 28.037L76.2963 23.5831L70.5748 19.6309L67.4981 24.0848L73.2196 28.037Z" fill="#DC3628"/>
<path d="M70.1482 32.4921L73.2249 28.0381L67.5034 24.0859L64.4267 28.5399L70.1482 32.4921Z" fill="#D42415"/>
<path d="M69.2718 33.9015L75.3786 5.50127C75.4784 5.03711 75.1831 4.57992 74.7189 4.48011L68.8275 3.21331C68.3633 3.1135 67.9061 3.40887 67.8063 3.87303L61.6995 32.2733C61.5997 32.7375 61.8951 33.1946 62.3593 33.2945L68.2507 34.5613C68.7148 34.6611 69.172 34.3657 69.2718 33.9015Z" fill="#DDDDF1"/>
<path d="M73.8524 10.7121L74.9904 5.4198L68.1919 3.95796L67.054 9.25025L73.8524 10.7121Z" fill="#FFCB99"/>
<path d="M72.717 16.005L73.855 10.7127L67.0566 9.25084L65.9186 14.5431L72.717 16.005Z" fill="#FFB066"/>
<path d="M71.5776 21.2969L72.7156 16.0046L65.9172 14.5428L64.7792 19.8351L71.5776 21.2969Z" fill="#FF9633"/>
<path d="M70.4422 26.5898L71.5802 21.2975L64.7818 19.8357L63.6438 25.1279L70.4422 26.5898Z" fill="#FF7C00"/>
<path d="M69.2993 31.8867L70.4373 26.5944L63.6388 25.1326L62.5009 30.4248L69.2993 31.8867Z" fill="#DD5D00"/>
<path d="M69.056 33.5583L63.8296 4.98295C63.7442 4.51593 63.2963 4.20657 62.8293 4.29199L56.9016 5.37616C56.4345 5.46158 56.1252 5.90943 56.2106 6.37645L61.437 34.9518C61.5224 35.4189 61.9702 35.7282 62.4373 35.6428L68.365 34.5586C68.832 34.4732 69.1414 34.0254 69.056 33.5583Z" fill="#E5E4E1"/>
<path d="M64.4142 10.379L63.4403 5.05408L56.6 6.30516L57.5739 11.6301L64.4142 10.379Z" fill="#56C4E9"/>
<path d="M65.3888 15.7082L64.4149 10.3833L57.5746 11.6344L58.5485 16.9593L65.3888 15.7082Z" fill="#46B2D8"/>
<path d="M66.3628 21.033L65.3889 15.7081L58.5486 16.9592L59.5225 22.2841L66.3628 21.033Z" fill="#38A4CA"/>
<path d="M67.3374 26.3622L66.3635 21.0373L59.5232 22.2884L60.4971 27.6133L67.3374 26.3622Z" fill="#279AB7"/>
<path d="M68.3113 31.6871L67.3374 26.3622L60.4971 27.6133L61.471 32.9382L68.3113 31.6871Z" fill="#2089A9"/>
<path d="M68.1837 34.2067C68.0339 34.2341 67.8792 34.2008 67.7538 34.1142C67.6285 34.0276 67.5426 33.8948 67.5152 33.7449C67.4878 33.595 67.5211 33.4404 67.6077 33.315C67.6943 33.1896 67.8271 33.1038 67.977 33.0764C68.1268 33.0501 68.2808 33.0839 68.4059 33.1703C68.531 33.2567 68.6171 33.3888 68.6455 33.5382C68.6718 33.6879 68.6381 33.842 68.5517 33.9671C68.4652 34.0922 68.3331 34.1782 68.1837 34.2067Z" fill="#5A5A5A"/>
</svg>
